<?xml version="1.0" encoding="utf-8" standalone="no"?>
<!DOCTYPE svg PUBLIC "-//W3C//DTD SVG 1.1//EN"
  "http://www.w3.org/Graphics/SVG/1.1/DTD/svg11.dtd">
<svg xmlns:xlink="http://www.w3.org/1999/xlink" width="712.8pt" height="483.08pt" viewBox="0 0 712.8 483.08" xmlns="http://www.w3.org/2000/svg" version="1.1">
 <metadata>
  <rdf:RDF xmlns:dc="http://purl.org/dc/elements/1.1/" xmlns:cc="http://creativecommons.org/ns#" xmlns:rdf="http://www.w3.org/1999/02/22-rdf-syntax-ns#">
   <cc:Work>
    <dc:type rdf:resource="http://purl.org/dc/dcmitype/StillImage"/>
    <dc:date>2024-11-15T11:51:14.728657</dc:date>
    <dc:format>image/svg+xml</dc:format>
    <dc:creator>
     <cc:Agent>
      <dc:title>Matplotlib v3.9.1, https://matplotlib.org/</dc:title>
     </cc:Agent>
    </dc:creator>
   </cc:Work>
  </rdf:RDF>
 </metadata>
 <defs>
  <style type="text/css">*{stroke-linejoin: round; stroke-linecap: butt}</style>
 </defs>
 <g id="figure_1">
  <g id="patch_1">
   <path d="M 0 483.08 
L 712.8 483.08 
L 712.8 -0 
L 0 -0 
z
" style="fill: #ffffff"/>
  </g>
  <g id="axes_1">
   <g id="patch_2">
    <path d="M 54.356983 416.325081 
L 639.518227 416.325081 
L 639.518227 65.48 
L 54.356983 65.48 
z
" style="fill: #ffffff"/>
   </g>
   <g id="patch_3">
    <path d="M 80.955222 416.325081 
L 96.601244 416.325081 
L 96.601244 396.669895 
L 80.955222 396.669895 
z
" clip-path="url(#p32b5e868ff)" style="fill: #abd9e9"/>
   </g>
   <g id="patch_4">
    <path d="M 143.539312 416.325081 
L 159.185334 416.325081 
L 159.185334 357.359522 
L 143.539312 357.359522 
z
" clip-path="url(#p32b5e868ff)" style="fill: #abd9e9"/>
   </g>
   <g id="patch_5">
    <path d="M 206.123402 416.325081 
L 221.769425 416.325081 
L 221.769425 318.049148 
L 206.123402 318.049148 
z
" clip-path="url(#p32b5e868ff)" style="fill: #abd9e9"/>
   </g>
   <g id="patch_6">
    <path d="M 268.707492 416.325081 
L 284.353515 416.325081 
L 284.353515 278.738775 
L 268.707492 278.738775 
z
" clip-path="url(#p32b5e868ff)" style="fill: #abd9e9"/>
   </g>
   <g id="patch_7">
    <path d="M 331.291582 416.325081 
L 346.937605 416.325081 
L 346.937605 239.428402 
L 331.291582 239.428402 
z
" clip-path="url(#p32b5e868ff)" style="fill: #abd9e9"/>
   </g>
   <g id="patch_8">
    <path d="M 393.875673 416.325081 
L 409.521695 416.325081 
L 409.521695 200.118028 
L 393.875673 200.118028 
z
" clip-path="url(#p32b5e868ff)" style="fill: #abd9e9"/>
   </g>
   <g id="patch_9">
    <path d="M 456.459763 416.325081 
L 472.105785 416.325081 
L 472.105785 160.807655 
L 456.459763 160.807655 
z
" clip-path="url(#p32b5e868ff)" style="fill: #abd9e9"/>
   </g>
   <g id="patch_10">
    <path d="M 519.043853 416.325081 
L 534.689876 416.325081 
L 534.689876 121.497282 
L 519.043853 121.497282 
z
" clip-path="url(#p32b5e868ff)" style="fill: #abd9e9"/>
   </g>
   <g id="patch_11">
    <path d="M 581.627943 416.325081 
L 597.273966 416.325081 
L 597.273966 82.186909 
L 581.627943 82.186909 
z
" clip-path="url(#p32b5e868ff)" style="fill: #abd9e9"/>
   </g>
   <g id="patch_12">
    <path d="M 96.601244 416.325081 
L 112.247267 416.325081 
L 112.247267 395.368147 
L 96.601244 395.368147 
z
" clip-path="url(#p32b5e868ff)" style="fill: #fdae61"/>
   </g>
   <g id="patch_13">
    <path d="M 159.185334 416.325081 
L 174.831357 416.325081 
L 174.831357 369.201259 
L 159.185334 369.201259 
z
" clip-path="url(#p32b5e868ff)" style="fill: #fdae61"/>
   </g>
   <g id="patch_14">
    <path d="M 221.769425 416.325081 
L 237.415447 416.325081 
L 237.415447 343.03437 
L 221.769425 343.03437 
z
" clip-path="url(#p32b5e868ff)" style="fill: #fdae61"/>
   </g>
   <g id="patch_15">
    <path d="M 284.353515 416.325081 
L 299.999537 416.325081 
L 299.999537 316.867481 
L 284.353515 316.867481 
z
" clip-path="url(#p32b5e868ff)" style="fill: #fdae61"/>
   </g>
   <g id="patch_16">
    <path d="M 346.937605 416.325081 
L 362.583627 416.325081 
L 362.583627 290.700592 
L 346.937605 290.700592 
z
" clip-path="url(#p32b5e868ff)" style="fill: #fdae61"/>
   </g>
   <g id="patch_17">
    <path d="M 409.521695 416.325081 
L 425.167718 416.325081 
L 425.167718 264.533704 
L 409.521695 264.533704 
z
" clip-path="url(#p32b5e868ff)" style="fill: #fdae61"/>
   </g>
   <g id="patch_18">
    <path d="M 472.105785 416.325081 
L 487.751808 416.325081 
L 487.751808 238.366815 
L 472.105785 238.366815 
z
" clip-path="url(#p32b5e868ff)" style="fill: #fdae61"/>
   </g>
   <g id="patch_19">
    <path d="M 534.689876 416.325081 
L 550.335898 416.325081 
L 550.335898 212.199926 
L 534.689876 212.199926 
z
" clip-path="url(#p32b5e868ff)" style="fill: #fdae61"/>
   </g>
   <g id="patch_20">
    <path d="M 597.273966 416.325081 
L 612.919988 416.325081 
L 612.919988 186.033038 
L 597.273966 186.033038 
z
" clip-path="url(#p32b5e868ff)" style="fill: #fdae61"/>
   </g>
   <g id="matplotlib.axis_1">
    <g id="xtick_1">
     <g id="line2d_1">
      <defs>
       <path id="ma7bade275f" d="M 0 0 
L 0 3.5 
" style="stroke: #000000; stroke-width: 0.8"/>
      </defs>
      <g>
       <use xlink:href="#ma7bade275f" x="96.601244" y="416.325081" style="stroke: #000000; stroke-width: 0.8"/>
      </g>
     </g>
     <g id="text_1">
      <!-- $\mathdefault{1}$ -->
      <g transform="translate(90.661482 441.489463) scale(0.26 -0.26)">
       <defs>
        <path id="CMR17-31" d="M 1702 4058 
C 1702 4192 1696 4192 1606 4192 
C 1357 3916 979 3827 621 3827 
C 602 3827 570 3827 563 3808 
C 557 3795 557 3782 557 3648 
C 755 3648 1088 3686 1344 3839 
L 1344 461 
C 1344 236 1331 160 781 160 
L 589 160 
L 589 0 
C 896 0 1216 0 1523 0 
C 1830 0 2150 0 2458 0 
L 2458 160 
L 2266 160 
C 1715 160 1702 230 1702 458 
L 1702 4058 
z
" transform="scale(0.015625)"/>
       </defs>
       <use xlink:href="#CMR17-31" transform="scale(0.996264)"/>
      </g>
     </g>
    </g>
    <g id="xtick_2">
     <g id="line2d_2">
      <g>
       <use xlink:href="#ma7bade275f" x="159.185334" y="416.325081" style="stroke: #000000; stroke-width: 0.8"/>
      </g>
     </g>
     <g id="text_2">
      <!-- $\mathdefault{3}$ -->
      <g transform="translate(153.245572 441.489463) scale(0.26 -0.26)">
       <defs>
        <path id="CMR17-33" d="M 1414 2157 
C 1984 2157 2234 1662 2234 1090 
C 2234 320 1824 25 1453 25 
C 1114 25 563 194 390 693 
C 422 680 454 680 486 680 
C 640 680 755 782 755 948 
C 755 1133 614 1216 486 1216 
C 378 1216 211 1165 211 926 
C 211 335 787 -128 1466 -128 
C 2176 -128 2720 430 2720 1085 
C 2720 1707 2208 2157 1600 2227 
C 2086 2328 2554 2756 2554 3329 
C 2554 3820 2048 4179 1472 4179 
C 890 4179 378 3829 378 3329 
C 378 3110 544 3072 627 3072 
C 762 3072 877 3155 877 3321 
C 877 3486 762 3569 627 3569 
C 602 3569 570 3569 544 3557 
C 730 3959 1235 4032 1459 4032 
C 1683 4032 2106 3925 2106 3320 
C 2106 3143 2080 2828 1862 2550 
C 1670 2304 1453 2304 1242 2284 
C 1210 2284 1062 2269 1037 2269 
C 992 2263 966 2257 966 2208 
C 966 2163 973 2157 1101 2157 
L 1414 2157 
z
" transform="scale(0.015625)"/>
       </defs>
       <use xlink:href="#CMR17-33" transform="scale(0.996264)"/>
      </g>
     </g>
    </g>
    <g id="xtick_3">
     <g id="line2d_3">
      <g>
       <use xlink:href="#ma7bade275f" x="221.769425" y="416.325081" style="stroke: #000000; stroke-width: 0.8"/>
      </g>
     </g>
     <g id="text_3">
      <!-- $\mathdefault{5}$ -->
      <g transform="translate(215.829663 441.489463) scale(0.26 -0.26)">
       <defs>
        <path id="CMR17-35" d="M 730 3692 
C 794 3666 1056 3584 1325 3584 
C 1920 3584 2246 3911 2432 4100 
C 2432 4157 2432 4192 2394 4192 
C 2387 4192 2374 4192 2323 4163 
C 2099 4058 1837 3973 1517 3973 
C 1325 3973 1037 3999 723 4139 
C 653 4171 640 4171 634 4171 
C 602 4171 595 4164 595 4037 
L 595 2203 
C 595 2089 595 2057 659 2057 
C 691 2057 704 2070 736 2114 
C 941 2401 1222 2522 1542 2522 
C 1766 2522 2246 2382 2246 1289 
C 2246 1085 2246 715 2054 421 
C 1894 159 1645 25 1370 25 
C 947 25 518 320 403 814 
C 429 807 480 795 506 795 
C 589 795 749 840 749 1038 
C 749 1210 627 1280 506 1280 
C 358 1280 262 1190 262 1011 
C 262 454 704 -128 1382 -128 
C 2042 -128 2669 440 2669 1264 
C 2669 2030 2170 2624 1549 2624 
C 1222 2624 947 2503 730 2274 
L 730 3692 
z
" transform="scale(0.015625)"/>
       </defs>
       <use xlink:href="#CMR17-35" transform="scale(0.996264)"/>
      </g>
     </g>
    </g>
    <g id="xtick_4">
     <g id="line2d_4">
      <g>
       <use xlink:href="#ma7bade275f" x="284.353515" y="416.325081" style="stroke: #000000; stroke-width: 0.8"/>
      </g>
     </g>
     <g id="text_4">
      <!-- $\mathdefault{7}$ -->
      <g transform="translate(278.413753 441.489463) scale(0.26 -0.26)">
       <defs>
        <path id="CMR17-37" d="M 2886 3941 
L 2886 4081 
L 1382 4081 
C 634 4081 621 4165 595 4288 
L 480 4288 
L 294 3094 
L 410 3094 
C 429 3215 474 3540 550 3661 
C 589 3712 1062 3712 1171 3712 
L 2579 3712 
L 1869 2661 
C 1395 1954 1069 999 1069 165 
C 1069 89 1069 -128 1299 -128 
C 1530 -128 1530 89 1530 171 
L 1530 465 
C 1530 1508 1709 2196 2003 2636 
L 2886 3941 
z
" transform="scale(0.015625)"/>
       </defs>
       <use xlink:href="#CMR17-37" transform="scale(0.996264)"/>
      </g>
     </g>
    </g>
    <g id="xtick_5">
     <g id="line2d_5">
      <g>
       <use xlink:href="#ma7bade275f" x="346.937605" y="416.325081" style="stroke: #000000; stroke-width: 0.8"/>
      </g>
     </g>
     <g id="text_5">
      <!-- $\mathdefault{9}$ -->
      <g transform="translate(340.997843 441.489463) scale(0.26 -0.26)">
       <defs>
        <path id="CMR17-39" d="M 2253 1864 
C 2253 464 1670 31 1190 31 
C 1043 31 685 31 538 294 
C 704 268 826 357 826 518 
C 826 692 685 749 595 749 
C 538 749 365 723 365 506 
C 365 71 742 -128 1203 -128 
C 1939 -128 2688 674 2688 2073 
C 2688 3817 1971 4179 1485 4179 
C 851 4179 243 3628 243 2778 
C 243 1991 762 1408 1414 1408 
C 1952 1408 2189 1903 2253 2112 
L 2253 1864 
z
M 1427 1510 
C 1254 1510 1011 1542 813 1922 
C 678 2169 678 2461 678 2771 
C 678 3146 678 3405 858 3684 
C 947 3817 1114 4032 1485 4032 
C 2240 4032 2240 2885 2240 2632 
C 2240 2182 2035 1510 1427 1510 
z
" transform="scale(0.015625)"/>
       </defs>
       <use xlink:href="#CMR17-39" transform="scale(0.996264)"/>
      </g>
     </g>
    </g>
    <g id="xtick_6">
     <g id="line2d_6">
      <g>
       <use xlink:href="#ma7bade275f" x="409.521695" y="416.325081" style="stroke: #000000; stroke-width: 0.8"/>
      </g>
     </g>
     <g id="text_6">
      <!-- $\mathdefault{11}$ -->
      <g transform="translate(397.642171 441.489463) scale(0.26 -0.26)">
       <use xlink:href="#CMR17-31" transform="scale(0.996264)"/>
       <use xlink:href="#CMR17-31" transform="translate(45.690477 0) scale(0.996264)"/>
      </g>
     </g>
    </g>
    <g id="xtick_7">
     <g id="line2d_7">
      <g>
       <use xlink:href="#ma7bade275f" x="472.105785" y="416.325081" style="stroke: #000000; stroke-width: 0.8"/>
      </g>
     </g>
     <g id="text_7">
      <!-- $\mathdefault{13}$ -->
      <g transform="translate(460.226261 441.489463) scale(0.26 -0.26)">
       <use xlink:href="#CMR17-31" transform="scale(0.996264)"/>
       <use xlink:href="#CMR17-33" transform="translate(45.690477 0) scale(0.996264)"/>
      </g>
     </g>
    </g>
    <g id="xtick_8">
     <g id="line2d_8">
      <g>
       <use xlink:href="#ma7bade275f" x="534.689876" y="416.325081" style="stroke: #000000; stroke-width: 0.8"/>
      </g>
     </g>
     <g id="text_8">
      <!-- $\mathdefault{15}$ -->
      <g transform="translate(522.810351 441.489463) scale(0.26 -0.26)">
       <use xlink:href="#CMR17-31" transform="scale(0.996264)"/>
       <use xlink:href="#CMR17-35" transform="translate(45.690477 0) scale(0.996264)"/>
      </g>
     </g>
    </g>
    <g id="xtick_9">
     <g id="line2d_9">
      <g>
       <use xlink:href="#ma7bade275f" x="597.273966" y="416.325081" style="stroke: #000000; stroke-width: 0.8"/>
      </g>
     </g>
     <g id="text_9">
      <!-- $\mathdefault{17}$ -->
      <g transform="translate(585.394442 441.489463) scale(0.26 -0.26)">
       <use xlink:href="#CMR17-31" transform="scale(0.996264)"/>
       <use xlink:href="#CMR17-37" transform="translate(45.690477 0) scale(0.996264)"/>
      </g>
     </g>
    </g>
    <g id="text_10">
     <!-- Duration [Years] -->
     <g transform="translate(257.702299 469.766922) scale(0.26 -0.26)">
      <defs>
       <path id="LinBiolinumT-44" d="M 1216 538 
L 1216 3622 
C 1216 3846 1440 3878 1754 3878 
C 3136 3878 3552 2816 3552 1830 
C 3552 538 2816 282 1914 282 
C 1286 282 1216 334 1216 538 
z
M 941 4141 
C 723 4141 614 4160 614 4160 
L 602 4141 
C 653 3775 666 3338 666 2857 
L 666 1284 
C 666 803 653 346 602 0 
L 608 0 
C 608 0 717 0 941 0 
C 1395 0 1453 0 2112 0 
C 3014 0 4211 410 4211 1984 
C 4211 3174 3226 4160 1997 4160 
C 1587 4160 1350 4141 941 4141 
z
" transform="scale(0.015625)"/>
       <path id="LinBiolinumT-75" d="M 2336 590 
L 2362 571 
L 2394 0 
C 2394 0 2400 0 2419 0 
C 2502 0 2579 0 2675 0 
C 2752 0 2874 0 2957 -4 
L 2970 15 
C 2918 290 2861 761 2861 1240 
L 2861 1604 
C 2861 2082 2867 2415 2918 2752 
L 2906 2765 
C 2829 2752 2682 2752 2605 2752 
C 2528 2752 2381 2752 2304 2772 
L 2291 2752 
C 2342 2392 2349 2094 2349 1613 
L 2349 992 
C 2157 669 1786 327 1472 327 
C 1254 327 1043 397 1043 986 
L 1043 1613 
C 1043 2088 1050 2417 1101 2752 
L 1088 2765 
C 1011 2752 864 2752 787 2752 
C 710 2752 563 2752 486 2772 
L 474 2752 
C 525 2391 531 2092 531 1611 
L 531 849 
C 531 412 736 -32 1370 -32 
C 1766 -32 2125 263 2336 590 
z
" transform="scale(0.015625)"/>
       <path id="LinBiolinumT-72" d="M 1069 2114 
L 1069 2718 
C 1069 2765 1062 2778 1030 2778 
C 890 2752 659 2752 512 2759 
L 499 2739 
C 544 2466 557 1981 557 1503 
L 557 1152 
C 557 675 550 350 499 6 
L 512 -13 
C 589 0 736 0 813 0 
C 890 0 1037 0 1114 -13 
L 1126 6 
C 1082 366 1069 662 1069 1141 
L 1069 1470 
C 1069 1734 1152 1886 1286 2095 
C 1382 2233 1523 2315 1645 2315 
C 1773 2315 1894 2303 1978 2227 
L 2029 2240 
L 2157 2738 
L 2131 2755 
C 2022 2776 2016 2784 1901 2784 
C 1555 2784 1370 2586 1088 2101 
L 1069 2114 
z
" transform="scale(0.015625)"/>
       <path id="LinBiolinumT-61" d="M 1984 1442 
L 1958 700 
C 1958 619 1920 576 1869 538 
C 1690 407 1472 295 1280 295 
C 992 295 806 482 806 675 
C 806 956 941 1168 1440 1299 
L 1984 1442 
z
M 1984 339 
C 2061 90 2246 -32 2483 -32 
C 2643 -32 2842 6 2995 167 
L 2944 326 
C 2874 301 2822 295 2771 295 
C 2707 295 2624 301 2586 339 
C 2522 395 2477 551 2477 826 
C 2477 1008 2496 1702 2496 1771 
C 2496 2614 1926 2784 1440 2784 
C 954 2784 659 2547 499 2414 
L 480 2389 
L 589 1971 
L 672 1965 
C 851 2245 1069 2495 1376 2495 
C 1606 2495 1990 2464 1990 1760 
C 1990 1716 1965 1692 1946 1685 
L 1350 1554 
C 698 1409 288 1071 288 645 
C 288 181 614 -32 1088 -32 
C 1440 -32 1619 51 1958 339 
L 1984 339 
z
" transform="scale(0.015625)"/>
       <path id="LinBiolinumT-74" d="M 608 2752 
C 480 2752 339 2752 262 2765 
C 218 2663 186 2599 122 2502 
L 154 2464 
C 262 2464 461 2464 608 2464 
L 608 1599 
C 608 1219 589 764 589 575 
C 589 164 858 -32 1152 -32 
C 1421 -32 1626 31 1894 203 
L 1818 361 
C 1619 285 1472 285 1312 310 
C 1158 335 1101 487 1101 828 
C 1101 1018 1120 1289 1120 1668 
L 1120 2464 
L 1363 2464 
C 1517 2464 1741 2464 1824 2458 
C 1843 2561 1862 2624 1901 2720 
L 1869 2752 
C 1754 2752 1568 2752 1421 2752 
L 1120 2752 
C 1120 3233 1126 3317 1152 3689 
C 1152 3734 1133 3753 1094 3753 
C 934 3689 858 3618 646 3593 
L 634 3573 
C 621 3349 608 3124 608 2752 
z
" transform="scale(0.015625)"/>
       <path id="LinBiolinumT-69" d="M 512 3833 
C 512 3660 666 3506 838 3506 
C 1011 3506 1165 3660 1165 3833 
C 1165 4006 1011 4160 838 4160 
C 666 4160 512 4006 512 3833 
z
M 576 1506 
L 576 1155 
C 576 676 563 351 518 6 
L 531 -13 
C 608 0 755 0 832 0 
C 909 0 1056 0 1133 -13 
L 1146 6 
C 1101 370 1088 670 1088 1155 
L 1088 1609 
C 1088 2088 1107 2318 1146 2707 
C 1146 2759 1139 2765 1088 2765 
C 941 2752 666 2752 531 2765 
L 518 2745 
C 557 2471 576 1985 576 1506 
z
" transform="scale(0.015625)"/>
       <path id="LinBiolinumT-6f" d="M 243 1316 
C 243 563 749 -32 1600 -32 
C 2445 -32 2957 551 2957 1373 
C 2957 2226 2490 2784 1626 2784 
C 787 2784 243 2207 243 1316 
z
M 1581 2527 
C 2259 2527 2394 2015 2394 1260 
C 2394 668 2086 224 1658 224 
C 979 224 806 942 806 1423 
C 806 1966 979 2527 1581 2527 
z
" transform="scale(0.015625)"/>
       <path id="LinBiolinumT-6e" d="M 2944 1144 
C 2944 1348 2957 1581 2957 1784 
C 2957 2442 2739 2784 2163 2784 
C 1920 2784 1466 2688 1056 2210 
L 1043 2231 
L 1043 2717 
C 1043 2765 1037 2778 1005 2778 
C 864 2752 634 2752 486 2759 
L 474 2739 
C 518 2466 531 1981 531 1503 
L 531 1152 
C 531 675 525 350 474 6 
L 486 -13 
C 563 0 710 0 787 0 
C 864 0 1011 0 1088 -13 
L 1101 6 
C 1050 366 1043 662 1043 1142 
L 1043 1881 
C 1370 2260 1741 2399 1971 2399 
C 2298 2399 2432 2273 2432 1761 
L 2432 1142 
C 2432 668 2419 347 2374 6 
L 2387 -13 
C 2464 0 2611 0 2688 0 
C 2765 0 2912 0 2989 -13 
L 3002 6 
C 2950 367 2944 664 2944 1144 
z
" transform="scale(0.015625)"/>
       <path id="LinBiolinumT-5b" d="M 704 -1216 
L 2080 -1216 
L 2080 -1030 
C 1197 -960 1139 -864 1139 -307 
L 1139 3604 
C 1139 4160 1203 4256 2080 4320 
L 2080 4512 
L 704 4512 
L 704 -1216 
z
" transform="scale(0.015625)"/>
       <path id="LinBiolinumT-59" d="M 2131 1828 
C 2394 2338 2835 2963 3610 4141 
C 3526 4128 3418 4128 3341 4128 
C 3258 4128 3149 4128 3072 4141 
C 2752 3472 2323 2758 1952 2179 
C 1549 2873 1178 3472 832 4141 
C 723 4128 576 4128 467 4128 
C 358 4128 211 4128 102 4141 
C 358 3758 1338 2178 1581 1764 
C 1581 1137 1568 339 1536 -13 
C 1613 0 1779 0 1856 0 
C 1933 0 2099 0 2176 -13 
C 2150 294 2138 1195 2131 1828 
z
" transform="scale(0.015625)"/>
       <path id="LinBiolinumT-65" d="M 800 1792 
C 909 2399 1331 2527 1530 2527 
C 1786 2527 2067 2311 2067 1874 
C 2067 1821 2042 1792 1978 1792 
L 800 1792 
z
M 2509 700 
C 2285 456 1984 346 1632 346 
C 1414 346 1114 431 934 715 
C 819 895 781 1160 781 1535 
L 2522 1535 
C 2592 1535 2637 1572 2637 1638 
C 2637 2147 2374 2784 1530 2784 
C 870 2784 218 2263 218 1341 
C 218 984 294 633 506 382 
C 723 124 1094 -32 1523 -32 
C 1984 -32 2394 205 2637 540 
L 2509 700 
z
" transform="scale(0.015625)"/>
       <path id="LinBiolinumT-73" d="M 320 668 
L 211 141 
C 576 13 934 -32 1178 -32 
C 2061 -32 2266 481 2266 826 
C 2266 1338 1850 1539 1395 1645 
C 1152 1701 800 1820 800 2133 
C 800 2389 1011 2527 1286 2527 
C 1619 2527 1824 2271 1971 2103 
L 2061 2109 
L 2189 2572 
L 2176 2591 
C 1990 2687 1638 2784 1312 2784 
C 838 2784 346 2539 346 2020 
C 346 1520 730 1357 1114 1250 
C 1485 1151 1760 1050 1760 744 
C 1760 412 1510 224 1171 224 
C 864 224 595 428 416 668 
L 320 668 
z
" transform="scale(0.015625)"/>
       <path id="LinBiolinumT-5d" d="M 1606 4512 
L 230 4512 
L 230 4326 
C 1114 4255 1171 4159 1171 3603 
L 1171 -308 
C 1171 -864 1107 -960 230 -1024 
L 230 -1216 
L 1606 -1216 
L 1606 4512 
z
" transform="scale(0.015625)"/>
      </defs>
      <use xlink:href="#LinBiolinumT-44" transform="scale(0.996264)"/>
      <use xlink:href="#LinBiolinumT-75" transform="translate(70.734745 0) scale(0.996264)"/>
      <use xlink:href="#LinBiolinumT-72" transform="translate(124.234089 0) scale(0.996264)"/>
      <use xlink:href="#LinBiolinumT-61" transform="translate(159.601415 0) scale(0.996264)"/>
      <use xlink:href="#LinBiolinumT-74" transform="translate(207.521705 0) scale(0.996264)"/>
      <use xlink:href="#LinBiolinumT-69" transform="translate(241.394697 0) scale(0.996264)"/>
      <use xlink:href="#LinBiolinumT-6f" transform="translate(267.297576 0) scale(0.996264)"/>
      <use xlink:href="#LinBiolinumT-6e" transform="translate(317.110777 0) scale(0.996264)"/>
      <use xlink:href="#LinBiolinumT-5b" transform="translate(395.715955 0) scale(0.996264)"/>
      <use xlink:href="#LinBiolinumT-59" transform="translate(431.681092 0) scale(0.996264)"/>
      <use xlink:href="#LinBiolinumT-65" transform="translate(482.590128 0) scale(0.996264)"/>
      <use xlink:href="#LinBiolinumT-61" transform="translate(527.720891 0) scale(0.996264)"/>
      <use xlink:href="#LinBiolinumT-72" transform="translate(575.641181 0) scale(0.996264)"/>
      <use xlink:href="#LinBiolinumT-73" transform="translate(611.008508 0) scale(0.996264)"/>
      <use xlink:href="#LinBiolinumT-5d" transform="translate(650.460553 0) scale(0.996264)"/>
     </g>
    </g>
   </g>
   <g id="matplotlib.axis_2">
    <g id="ytick_1">
     <g id="line2d_10">
      <defs>
       <path id="m3c80d8eddc" d="M 0 0 
L -3.5 0 
" style="stroke: #000000; stroke-width: 0.8"/>
      </defs>
      <g>
       <use xlink:href="#m3c80d8eddc" x="54.356983" y="416.325081" style="stroke: #000000; stroke-width: 0.8"/>
      </g>
     </g>
     <g id="text_11">
      <!-- $\mathdefault{0}$ -->
      <g transform="translate(35.477459 425.407272) scale(0.26 -0.26)">
       <defs>
        <path id="CMR17-30" d="M 2688 2025 
C 2688 2416 2682 3080 2413 3591 
C 2176 4039 1798 4198 1466 4198 
C 1158 4198 768 4058 525 3597 
C 269 3118 243 2524 243 2025 
C 243 1661 250 1106 448 619 
C 723 -39 1216 -128 1466 -128 
C 1760 -128 2208 -7 2470 600 
C 2662 1042 2688 1559 2688 2025 
z
M 1466 -26 
C 1056 -26 813 325 723 812 
C 653 1188 653 1738 653 2096 
C 653 2588 653 2997 736 3387 
C 858 3929 1216 4096 1466 4096 
C 1728 4096 2067 3923 2189 3400 
C 2272 3036 2278 2607 2278 2096 
C 2278 1680 2278 1169 2202 792 
C 2067 95 1690 -26 1466 -26 
z
" transform="scale(0.015625)"/>
       </defs>
       <use xlink:href="#CMR17-30" transform="scale(0.996264)"/>
      </g>
     </g>
    </g>
    <g id="ytick_2">
     <g id="line2d_11">
      <g>
       <use xlink:href="#m3c80d8eddc" x="54.356983" y="340.18507" style="stroke: #000000; stroke-width: 0.8"/>
      </g>
     </g>
     <g id="text_12">
      <!-- $\mathdefault{2}$ -->
      <g transform="translate(35.477459 349.26726) scale(0.26 -0.26)">
       <defs>
        <path id="CMR17-32" d="M 2669 989 
L 2554 989 
C 2490 536 2438 459 2413 420 
C 2381 369 1920 369 1830 369 
L 602 369 
C 832 619 1280 1072 1824 1597 
C 2214 1967 2669 2402 2669 3035 
C 2669 3790 2067 4224 1395 4224 
C 691 4224 262 3604 262 3030 
C 262 2780 448 2748 525 2748 
C 589 2748 781 2787 781 3010 
C 781 3207 614 3264 525 3264 
C 486 3264 448 3258 422 3245 
C 544 3790 915 4058 1306 4058 
C 1862 4058 2227 3617 2227 3035 
C 2227 2479 1901 2000 1536 1584 
L 262 146 
L 262 0 
L 2515 0 
L 2669 989 
z
" transform="scale(0.015625)"/>
       </defs>
       <use xlink:href="#CMR17-32" transform="scale(0.996264)"/>
      </g>
     </g>
    </g>
    <g id="ytick_3">
     <g id="line2d_12">
      <g>
       <use xlink:href="#m3c80d8eddc" x="54.356983" y="264.045058" style="stroke: #000000; stroke-width: 0.8"/>
      </g>
     </g>
     <g id="text_13">
      <!-- $\mathdefault{4}$ -->
      <g transform="translate(35.477459 273.127249) scale(0.26 -0.26)">
       <defs>
        <path id="CMR17-34" d="M 2150 4122 
C 2150 4256 2144 4256 2029 4256 
L 128 1254 
L 128 1088 
L 1779 1088 
L 1779 457 
C 1779 224 1766 160 1318 160 
L 1197 160 
L 1197 0 
C 1402 0 1747 0 1965 0 
C 2182 0 2528 0 2733 0 
L 2733 160 
L 2611 160 
C 2163 160 2150 224 2150 457 
L 2150 1088 
L 2803 1088 
L 2803 1254 
L 2150 1254 
L 2150 4122 
z
M 1798 3703 
L 1798 1254 
L 256 1254 
L 1798 3703 
z
" transform="scale(0.015625)"/>
       </defs>
       <use xlink:href="#CMR17-34" transform="scale(0.996264)"/>
      </g>
     </g>
    </g>
    <g id="ytick_4">
     <g id="line2d_13">
      <g>
       <use xlink:href="#m3c80d8eddc" x="54.356983" y="187.905046" style="stroke: #000000; stroke-width: 0.8"/>
      </g>
     </g>
     <g id="text_14">
      <!-- $\mathdefault{6}$ -->
      <g transform="translate(35.477459 196.987237) scale(0.26 -0.26)">
       <defs>
        <path id="CMR17-36" d="M 678 2176 
C 678 3690 1395 4032 1811 4032 
C 1946 4032 2272 4009 2400 3776 
C 2298 3776 2106 3776 2106 3553 
C 2106 3381 2246 3323 2336 3323 
C 2394 3323 2566 3348 2566 3560 
C 2566 3954 2246 4179 1805 4179 
C 1043 4179 243 3390 243 1984 
C 243 253 966 -128 1478 -128 
C 2099 -128 2688 427 2688 1283 
C 2688 2081 2170 2662 1517 2662 
C 1126 2662 838 2407 678 1960 
L 678 2176 
z
M 1478 25 
C 691 25 691 1200 691 1436 
C 691 1896 909 2560 1504 2560 
C 1613 2560 1926 2560 2138 2120 
C 2253 1870 2253 1609 2253 1289 
C 2253 944 2253 690 2118 434 
C 1978 171 1773 25 1478 25 
z
" transform="scale(0.015625)"/>
       </defs>
       <use xlink:href="#CMR17-36" transform="scale(0.996264)"/>
      </g>
     </g>
    </g>
    <g id="ytick_5">
     <g id="line2d_14">
      <g>
       <use xlink:href="#m3c80d8eddc" x="54.356983" y="111.765034" style="stroke: #000000; stroke-width: 0.8"/>
      </g>
     </g>
     <g id="text_15">
      <!-- $\mathdefault{8}$ -->
      <g transform="translate(35.477459 120.847225) scale(0.26 -0.26)">
       <defs>
        <path id="CMR17-38" d="M 1741 2264 
C 2144 2467 2554 2773 2554 3263 
C 2554 3841 1990 4179 1472 4179 
C 890 4179 378 3759 378 3180 
C 378 3021 416 2747 666 2505 
C 730 2442 998 2251 1171 2130 
C 883 1983 211 1634 211 934 
C 211 279 838 -128 1459 -128 
C 2144 -128 2720 362 2720 1010 
C 2720 1590 2330 1857 2074 2029 
L 1741 2264 
z
M 902 2822 
C 851 2854 595 3051 595 3351 
C 595 3739 998 4032 1459 4032 
C 1965 4032 2336 3676 2336 3262 
C 2336 2669 1670 2331 1638 2331 
C 1632 2331 1626 2331 1574 2370 
L 902 2822 
z
M 2080 1519 
C 2176 1449 2483 1240 2483 851 
C 2483 381 2010 25 1472 25 
C 890 25 448 438 448 940 
C 448 1443 838 1862 1280 2060 
L 2080 1519 
z
" transform="scale(0.015625)"/>
       </defs>
       <use xlink:href="#CMR17-38" transform="scale(0.996264)"/>
      </g>
     </g>
    </g>
    <g id="text_16">
     <!-- Acc. CO$_2$ [Thousand Kg] -->
     <g transform="translate(25.364382 372.384892) rotate(-90) scale(0.26 -0.26)">
      <defs>
       <path id="LinBiolinumT-41" d="M 2605 1754 
C 2394 1754 2131 1754 1939 1754 
C 1754 1754 1414 1754 1274 1754 
L 1946 3349 
L 1958 3349 
C 2221 2733 2432 2202 2605 1754 
z
M 1146 1459 
C 1306 1472 1754 1472 1971 1472 
C 2214 1472 2566 1472 2720 1459 
C 3034 621 3181 122 3219 -19 
C 3328 0 3430 0 3539 0 
C 3648 0 3814 0 3923 -19 
C 3603 630 2758 2819 2170 4224 
L 1990 4224 
C 1376 2799 749 1399 102 -19 
C 179 0 256 0 326 0 
C 397 0 538 0 614 -19 
C 717 371 915 902 1146 1459 
z
" transform="scale(0.015625)"/>
       <path id="LinBiolinumT-63" d="M 1600 2527 
C 1850 2527 2074 2352 2240 2066 
L 2323 2073 
L 2470 2585 
L 2458 2604 
C 2259 2707 1926 2784 1606 2784 
C 941 2784 243 2250 243 1398 
C 243 526 749 -32 1530 -32 
C 1914 -32 2214 95 2470 420 
L 2349 551 
L 2323 551 
C 2080 339 1875 289 1638 289 
C 1171 289 806 700 806 1429 
C 806 2116 1178 2527 1600 2527 
z
" transform="scale(0.015625)"/>
       <path id="LinBiolinumT-2e" d="M 346 282 
C 403 71 493 -19 691 -64 
L 717 -64 
C 896 -19 998 77 1062 282 
L 1062 308 
C 1005 487 902 590 717 654 
L 691 654 
C 499 577 403 481 346 308 
L 346 282 
z
" transform="scale(0.015625)"/>
       <path id="LinBiolinumT-43" d="M 2432 4269 
C 1350 4269 333 3329 333 2060 
C 333 947 966 -32 2342 -32 
C 2931 -32 3488 155 3917 675 
C 3917 746 3904 888 3878 946 
L 3834 965 
C 3379 463 2995 295 2400 295 
C 1587 295 992 1178 992 2183 
C 992 3491 1818 3968 2342 3968 
C 2918 3968 3386 3736 3648 3208 
L 3725 3214 
C 3750 3542 3770 3659 3840 3929 
L 3827 3949 
C 3827 3949 3213 4269 2432 4269 
z
" transform="scale(0.015625)"/>
       <path id="LinBiolinumT-4f" d="M 2272 3968 
C 3174 3968 3750 3352 3750 2019 
C 3750 872 3219 250 2490 250 
C 1722 250 992 898 992 2128 
C 992 3474 1658 3968 2272 3968 
z
M 4410 2141 
C 4410 3410 3507 4250 2355 4250 
C 1210 4250 333 3275 333 2019 
C 333 757 1261 -32 2362 -32 
C 3584 -32 4410 859 4410 2141 
z
" transform="scale(0.015625)"/>
       <path id="LinBiolinumT-54" d="M 1453 2854 
L 1453 1286 
C 1453 806 1440 351 1389 6 
L 1402 -13 
C 1478 0 1651 0 1728 0 
C 1805 0 1978 0 2054 -13 
L 2067 6 
C 2016 371 2003 806 2003 1286 
L 2003 2854 
C 2003 2963 2010 3622 2054 3776 
C 2912 3776 3347 3686 3347 3686 
L 3360 3712 
C 3347 3809 3347 3958 3360 4141 
L 3347 4141 
C 3245 4141 3098 4141 2963 4141 
L 493 4141 
C 358 4141 211 4141 109 4154 
L 96 4135 
C 109 3955 109 3808 96 3712 
L 109 3686 
C 109 3686 544 3776 1402 3776 
C 1446 3622 1453 2963 1453 2854 
z
" transform="scale(0.015625)"/>
       <path id="LinBiolinumT-68" d="M 1088 2230 
L 1088 3183 
C 1088 3657 1114 3990 1146 4381 
C 1146 4425 1126 4445 1088 4445 
C 928 4381 794 4336 531 4316 
L 518 4297 
C 570 4024 576 3547 576 3064 
L 576 1150 
C 576 680 570 362 518 6 
L 531 -13 
C 608 0 755 0 832 0 
C 909 0 1056 0 1133 -13 
L 1146 6 
C 1101 366 1088 662 1088 1142 
L 1088 1881 
C 1414 2260 1792 2399 2016 2399 
C 2342 2399 2477 2273 2477 1761 
L 2477 1142 
C 2477 668 2470 347 2419 6 
L 2432 -13 
C 2509 0 2656 0 2733 0 
C 2810 0 2957 0 3034 -13 
L 3046 6 
C 2995 367 2989 664 2989 1144 
C 2989 1348 3002 1581 3002 1784 
C 3002 2442 2784 2784 2208 2784 
C 1965 2784 1510 2688 1101 2210 
L 1088 2230 
z
" transform="scale(0.015625)"/>
       <path id="LinBiolinumT-64" d="M 2310 744 
C 2080 457 1786 301 1523 301 
C 1178 301 883 638 883 1417 
C 883 2352 1395 2527 1702 2527 
C 2003 2527 2157 2402 2310 2165 
L 2310 744 
z
M 2310 384 
L 2323 384 
L 2355 12 
C 2355 -1 2374 -7 2413 -7 
C 2496 0 2541 0 2637 0 
C 2714 0 2835 0 2918 -7 
L 2931 12 
C 2880 285 2822 754 2822 1230 
L 2822 3187 
C 2822 3656 2848 3986 2880 4381 
C 2880 4425 2861 4445 2822 4445 
C 2662 4381 2528 4336 2266 4316 
L 2253 4297 
C 2304 4021 2310 3547 2310 3060 
L 2310 2643 
C 2163 2726 1901 2784 1773 2784 
C 941 2784 326 2219 326 1366 
C 326 595 794 -32 1485 -32 
C 1792 -32 2080 89 2310 384 
z
" transform="scale(0.015625)"/>
       <path id="LinBiolinumT-4b" d="M 666 2850 
L 666 1284 
C 666 805 653 351 602 6 
L 614 -13 
C 691 0 864 0 941 0 
C 1018 0 1190 0 1267 -13 
L 1280 6 
C 1229 371 1216 805 1216 1285 
L 1216 2109 
C 1248 2103 1306 2090 1338 2064 
C 1600 1801 2515 693 3091 -19 
C 3200 0 3379 0 3488 0 
C 3610 0 3763 0 3885 -13 
L 1875 2256 
L 1875 2268 
C 2310 2773 3258 3655 3821 4147 
C 3718 4128 3590 4128 3494 4128 
C 3411 4128 3264 4128 3181 4147 
C 2611 3493 1920 2749 1357 2255 
C 1312 2217 1248 2204 1216 2197 
L 1216 2845 
C 1216 3326 1229 3788 1280 4128 
L 1267 4141 
C 1190 4128 1018 4128 941 4128 
C 864 4128 691 4128 614 4147 
L 602 4128 
C 653 3763 666 3329 666 2850 
z
" transform="scale(0.015625)"/>
       <path id="LinBiolinumT-67" d="M 646 -701 
C 646 -488 838 -250 1062 -128 
C 1254 -128 1542 -128 1632 -128 
C 1939 -128 2138 -128 2310 -230 
C 2496 -338 2560 -523 2560 -689 
C 2560 -1077 2035 -1280 1485 -1280 
C 1069 -1280 646 -1139 646 -701 
z
M 2496 1789 
C 2496 2231 2323 2437 2176 2533 
C 2368 2533 2579 2503 2842 2475 
L 2861 2494 
C 2848 2551 2842 2601 2842 2658 
C 2842 2714 2848 2765 2861 2821 
L 2842 2821 
C 2534 2821 2310 2752 1830 2752 
C 1715 2773 1574 2784 1440 2784 
C 934 2784 352 2442 352 1805 
C 352 1321 627 1102 806 999 
C 621 871 397 686 397 468 
C 397 205 550 -25 896 -83 
C 717 -160 518 -282 352 -410 
C 269 -531 205 -710 205 -832 
C 205 -1338 755 -1556 1434 -1556 
C 2432 -1556 3027 -1139 3027 -537 
C 3027 -255 2938 -57 2758 97 
C 2515 302 2080 302 1856 302 
C 1747 302 1491 302 1344 278 
C 1254 271 1190 263 1158 263 
C 979 263 787 289 787 564 
C 787 692 819 800 960 922 
C 1043 877 1242 832 1434 832 
C 2099 832 2496 1281 2496 1789 
z
M 1997 1781 
C 1997 1390 1837 1089 1453 1089 
C 992 1089 851 1390 851 1834 
C 851 2257 1043 2533 1414 2533 
C 1830 2533 1997 2238 1997 1781 
z
" transform="scale(0.015625)"/>
      </defs>
      <use xlink:href="#LinBiolinumT-41" transform="scale(0.996264)"/>
      <use xlink:href="#LinBiolinumT-63" transform="translate(61.469441 0) scale(0.996264)"/>
      <use xlink:href="#LinBiolinumT-63" transform="translate(104.209146 0) scale(0.996264)"/>
      <use xlink:href="#LinBiolinumT-2e" transform="translate(146.94885 0) scale(0.996264)"/>
      <use xlink:href="#LinBiolinumT-43" transform="translate(197.927723 0) scale(0.996264)"/>
      <use xlink:href="#LinBiolinumT-4f" transform="translate(265.374794 0) scale(0.996264)"/>
      <use xlink:href="#CMR17-32" transform="translate(339.197963 -14.943915) scale(0.697382)"/>
      <use xlink:href="#LinBiolinumT-5b" transform="translate(396.585877 0) scale(0.996264)"/>
      <use xlink:href="#LinBiolinumT-54" transform="translate(432.551014 0) scale(0.996264)"/>
      <use xlink:href="#LinBiolinumT-68" transform="translate(486.349255 0) scale(0.996264)"/>
      <use xlink:href="#LinBiolinumT-6f" transform="translate(541.044128 0) scale(0.996264)"/>
      <use xlink:href="#LinBiolinumT-75" transform="translate(590.857329 0) scale(0.996264)"/>
      <use xlink:href="#LinBiolinumT-73" transform="translate(644.356673 0) scale(0.996264)"/>
      <use xlink:href="#LinBiolinumT-61" transform="translate(683.808718 0) scale(0.996264)"/>
      <use xlink:href="#LinBiolinumT-6e" transform="translate(731.729008 0) scale(0.996264)"/>
      <use xlink:href="#LinBiolinumT-64" transform="translate(785.427587 0) scale(0.996264)"/>
      <use xlink:href="#LinBiolinumT-4b" transform="translate(863.136149 0) scale(0.996264)"/>
      <use xlink:href="#LinBiolinumT-67" transform="translate(924.306677 0) scale(0.996264)"/>
      <use xlink:href="#LinBiolinumT-5d" transform="translate(974.0202 0) scale(0.996264)"/>
     </g>
    </g>
   </g>
   <g id="patch_21">
    <path d="M 54.356983 416.325081 
L 54.356983 65.48 
" style="fill: none; stroke: #000000; stroke-width: 0.8; stroke-linejoin: miter; stroke-linecap: square"/>
   </g>
   <g id="patch_22">
    <path d="M 639.518227 416.325081 
L 639.518227 65.48 
" style="fill: none; stroke: #000000; stroke-width: 0.8; stroke-linejoin: miter; stroke-linecap: square"/>
   </g>
   <g id="patch_23">
    <path d="M 54.356983 416.325081 
L 639.518227 416.325081 
" style="fill: none; stroke: #000000; stroke-width: 0.8; stroke-linejoin: miter; stroke-linecap: square"/>
   </g>
   <g id="patch_24">
    <path d="M 54.356983 65.48 
L 639.518227 65.48 
" style="fill: none; stroke: #000000; stroke-width: 0.8; stroke-linejoin: miter; stroke-linecap: square"/>
   </g>
  </g>
  <g id="axes_2">
   <g id="matplotlib.axis_3">
    <g id="ytick_6">
     <g id="line2d_15">
      <defs>
       <path id="m7a808f702d" d="M 0 0 
L 3.5 0 
" style="stroke: #d7191c; stroke-width: 0.8"/>
      </defs>
      <g>
       <use xlink:href="#m7a808f702d" x="639.518227" y="416.325081" style="fill: #d7191c; stroke: #d7191c; stroke-width: 0.8"/>
      </g>
     </g>
     <g id="text_17">
      <!-- $\mathdefault{0.0}$ -->
      <g style="fill: #d7191c" transform="translate(646.518227 425.407272) scale(0.26 -0.26)">
       <defs>
        <path id="CMMI12-3a" d="M 1178 307 
C 1178 492 1024 619 870 619 
C 685 619 557 466 557 313 
C 557 128 710 0 864 0 
C 1050 0 1178 153 1178 307 
z
" transform="scale(0.015625)"/>
       </defs>
       <use xlink:href="#CMR17-30" transform="scale(0.996264)"/>
       <use xlink:href="#CMMI12-3a" transform="translate(45.690477 0) scale(0.996264)"/>
       <use xlink:href="#CMR17-30" transform="translate(72.787654 0) scale(0.996264)"/>
      </g>
     </g>
    </g>
    <g id="ytick_7">
     <g id="line2d_16">
      <g>
       <use xlink:href="#m7a808f702d" x="639.518227" y="356.855756" style="fill: #d7191c; stroke: #d7191c; stroke-width: 0.8"/>
      </g>
     </g>
     <g id="text_18">
      <!-- $\mathdefault{0.2}$ -->
      <g style="fill: #d7191c" transform="translate(646.518227 365.937947) scale(0.26 -0.26)">
       <use xlink:href="#CMR17-30" transform="scale(0.996264)"/>
       <use xlink:href="#CMMI12-3a" transform="translate(45.690477 0) scale(0.996264)"/>
       <use xlink:href="#CMR17-32" transform="translate(72.787654 0) scale(0.996264)"/>
      </g>
     </g>
    </g>
    <g id="ytick_8">
     <g id="line2d_17">
      <g>
       <use xlink:href="#m7a808f702d" x="639.518227" y="297.386432" style="fill: #d7191c; stroke: #d7191c; stroke-width: 0.8"/>
      </g>
     </g>
     <g id="text_19">
      <!-- $\mathdefault{0.4}$ -->
      <g style="fill: #d7191c" transform="translate(646.518227 306.468622) scale(0.26 -0.26)">
       <use xlink:href="#CMR17-30" transform="scale(0.996264)"/>
       <use xlink:href="#CMMI12-3a" transform="translate(45.690477 0) scale(0.996264)"/>
       <use xlink:href="#CMR17-34" transform="translate(72.787654 0) scale(0.996264)"/>
      </g>
     </g>
    </g>
    <g id="ytick_9">
     <g id="line2d_18">
      <g>
       <use xlink:href="#m7a808f702d" x="639.518227" y="237.917107" style="fill: #d7191c; stroke: #d7191c; stroke-width: 0.8"/>
      </g>
     </g>
     <g id="text_20">
      <!-- $\mathdefault{0.6}$ -->
      <g style="fill: #d7191c" transform="translate(646.518227 246.999297) scale(0.26 -0.26)">
       <use xlink:href="#CMR17-30" transform="scale(0.996264)"/>
       <use xlink:href="#CMMI12-3a" transform="translate(45.690477 0) scale(0.996264)"/>
       <use xlink:href="#CMR17-36" transform="translate(72.787654 0) scale(0.996264)"/>
      </g>
     </g>
    </g>
    <g id="ytick_10">
     <g id="line2d_19">
      <g>
       <use xlink:href="#m7a808f702d" x="639.518227" y="178.447782" style="fill: #d7191c; stroke: #d7191c; stroke-width: 0.8"/>
      </g>
     </g>
     <g id="text_21">
      <!-- $\mathdefault{0.8}$ -->
      <g style="fill: #d7191c" transform="translate(646.518227 187.529972) scale(0.26 -0.26)">
       <use xlink:href="#CMR17-30" transform="scale(0.996264)"/>
       <use xlink:href="#CMMI12-3a" transform="translate(45.690477 0) scale(0.996264)"/>
       <use xlink:href="#CMR17-38" transform="translate(72.787654 0) scale(0.996264)"/>
      </g>
     </g>
    </g>
    <g id="ytick_11">
     <g id="line2d_20">
      <g>
       <use xlink:href="#m7a808f702d" x="639.518227" y="118.978457" style="fill: #d7191c; stroke: #d7191c; stroke-width: 0.8"/>
      </g>
     </g>
     <g id="text_22">
      <!-- $\mathdefault{1.0}$ -->
      <g style="fill: #d7191c" transform="translate(646.518227 128.060648) scale(0.26 -0.26)">
       <use xlink:href="#CMR17-31" transform="scale(0.996264)"/>
       <use xlink:href="#CMMI12-3a" transform="translate(45.690477 0) scale(0.996264)"/>
       <use xlink:href="#CMR17-30" transform="translate(72.787654 0) scale(0.996264)"/>
      </g>
     </g>
    </g>
    <g id="text_23">
     <!-- Ratio -->
     <g style="fill: #d7191c" transform="translate(699.486922 269.149611) rotate(-90) scale(0.26 -0.26)">
      <defs>
       <path id="LinBiolinumT-52" d="M 1216 1855 
C 1440 1855 1638 1855 1811 1868 
C 1990 1654 2125 1403 2291 1138 
C 2522 763 2829 201 2899 -19 
C 3021 0 3162 0 3283 0 
C 3411 0 3539 0 3667 -19 
L 3680 0 
C 3360 370 2720 1394 2310 1939 
C 2483 1971 2611 2015 2701 2060 
C 3046 2231 3341 2561 3341 3081 
C 3341 3399 3232 3659 3002 3875 
C 2694 4160 2208 4160 1805 4160 
C 1645 4160 1133 4128 941 4128 
C 864 4128 691 4128 614 4147 
L 602 4128 
C 653 3763 666 3328 666 2848 
L 666 1280 
C 666 800 653 345 602 0 
L 614 -13 
C 691 0 864 0 941 0 
C 1018 0 1190 0 1267 -19 
L 1280 0 
C 1229 370 1216 811 1216 1298 
L 1216 1855 
z
M 1811 3878 
C 2202 3878 2726 3734 2726 3061 
C 2726 2299 2208 2112 1587 2112 
L 1216 2112 
L 1216 3630 
C 1216 3878 1235 3878 1811 3878 
z
" transform="scale(0.015625)"/>
      </defs>
      <use xlink:href="#LinBiolinumT-52" transform="scale(0.996264)"/>
      <use xlink:href="#LinBiolinumT-61" transform="translate(59.775871 0) scale(0.996264)"/>
      <use xlink:href="#LinBiolinumT-74" transform="translate(107.696161 0) scale(0.996264)"/>
      <use xlink:href="#LinBiolinumT-69" transform="translate(141.569152 0) scale(0.996264)"/>
      <use xlink:href="#LinBiolinumT-6f" transform="translate(167.472032 0) scale(0.996264)"/>
     </g>
    </g>
   </g>
   <g id="line2d_21">
    <path d="M 96.601244 99.285424 
L 159.185334 178.692984 
L 221.769425 194.574496 
L 284.353515 201.380858 
L 346.937605 205.162171 
L 409.521695 207.56846 
L 472.105785 209.234353 
L 534.689876 210.456008 
L 597.273966 211.390215 
" clip-path="url(#p32b5e868ff)" style="fill: none; stroke: #d7191c; stroke-width: 2; stroke-linecap: square"/>
    <defs>
     <path id="m2b458c1ef4" d="M 0 5 
C 1.326016 5 2.597899 4.473168 3.535534 3.535534 
C 4.473168 2.597899 5 1.326016 5 0 
C 5 -1.326016 4.473168 -2.597899 3.535534 -3.535534 
C 2.597899 -4.473168 1.326016 -5 0 -5 
C -1.326016 -5 -2.597899 -4.473168 -3.535534 -3.535534 
C -4.473168 -2.597899 -5 -1.326016 -5 0 
C -5 1.326016 -4.473168 2.597899 -3.535534 3.535534 
C -2.597899 4.473168 -1.326016 5 0 5 
z
" style="stroke: #d7191c"/>
    </defs>
    <g clip-path="url(#p32b5e868ff)">
     <use xlink:href="#m2b458c1ef4" x="96.601244" y="99.285424" style="fill: #d7191c; stroke: #d7191c"/>
     <use xlink:href="#m2b458c1ef4" x="159.185334" y="178.692984" style="fill: #d7191c; stroke: #d7191c"/>
     <use xlink:href="#m2b458c1ef4" x="221.769425" y="194.574496" style="fill: #d7191c; stroke: #d7191c"/>
     <use xlink:href="#m2b458c1ef4" x="284.353515" y="201.380858" style="fill: #d7191c; stroke: #d7191c"/>
     <use xlink:href="#m2b458c1ef4" x="346.937605" y="205.162171" style="fill: #d7191c; stroke: #d7191c"/>
     <use xlink:href="#m2b458c1ef4" x="409.521695" y="207.56846" style="fill: #d7191c; stroke: #d7191c"/>
     <use xlink:href="#m2b458c1ef4" x="472.105785" y="209.234353" style="fill: #d7191c; stroke: #d7191c"/>
     <use xlink:href="#m2b458c1ef4" x="534.689876" y="210.456008" style="fill: #d7191c; stroke: #d7191c"/>
     <use xlink:href="#m2b458c1ef4" x="597.273966" y="211.390215" style="fill: #d7191c; stroke: #d7191c"/>
    </g>
   </g>
   <g id="line2d_22">
    <path d="M 54.356983 118.978457 
L 639.518227 118.978457 
" clip-path="url(#p32b5e868ff)" style="fill: none; stroke-dasharray: 7.4,3.2; stroke-dashoffset: 0; stroke: #d7191c; stroke-width: 2"/>
   </g>
   <g id="patch_25">
    <path d="M 54.356983 416.325081 
L 54.356983 65.48 
" style="fill: none; stroke: #000000; stroke-width: 0.8; stroke-linejoin: miter; stroke-linecap: square"/>
   </g>
   <g id="patch_26">
    <path d="M 639.518227 416.325081 
L 639.518227 65.48 
" style="fill: none; stroke: #000000; stroke-width: 0.8; stroke-linejoin: miter; stroke-linecap: square"/>
   </g>
   <g id="patch_27">
    <path d="M 54.356983 416.325081 
L 639.518227 416.325081 
" style="fill: none; stroke: #000000; stroke-width: 0.8; stroke-linejoin: miter; stroke-linecap: square"/>
   </g>
   <g id="patch_28">
    <path d="M 54.356983 65.48 
L 639.518227 65.48 
" style="fill: none; stroke: #000000; stroke-width: 0.8; stroke-linejoin: miter; stroke-linecap: square"/>
   </g>
   <g id="text_24">
    <!-- 1.07 -->
    <g style="fill: #d7191c" transform="translate(90.684686 88.172346) scale(0.26 -0.26)">
     <defs>
      <path id="LinBiolinumT-31" d="M 2086 1214 
L 2086 2845 
C 2086 3539 2125 3796 2138 3886 
C 2138 3918 2118 3918 2093 3918 
C 1677 3784 1190 3534 691 3380 
L 730 3194 
C 1018 3226 1331 3296 1459 3296 
C 1574 3296 1574 3040 1574 2808 
L 1574 1214 
C 1574 713 1568 367 1523 0 
L 1530 0 
C 1530 0 1709 0 1824 0 
C 1952 0 2131 -19 2131 -19 
L 2144 0 
C 2099 386 2086 707 2086 1214 
z
" transform="scale(0.015625)"/>
      <path id="LinBiolinumT-30" d="M 1491 3712 
C 1600 3712 1702 3674 1773 3609 
C 1971 3442 2144 2939 2144 2075 
C 2144 1482 2125 1147 2035 817 
C 1894 282 1581 218 1466 218 
C 870 218 800 1321 800 1882 
C 800 3474 1197 3712 1491 3712 
z
M 1459 -32 
C 1952 -32 2694 515 2694 2023 
C 2694 3028 2330 3524 2099 3737 
C 1926 3898 1722 3962 1491 3962 
C 851 3962 250 3163 250 1895 
C 250 851 666 -32 1459 -32 
z
" transform="scale(0.015625)"/>
      <path id="LinBiolinumT-37" d="M 2208 3392 
C 1709 2152 1222 938 794 -26 
L 813 -64 
L 1280 -64 
C 1645 1034 1997 2104 2714 3866 
L 2605 3930 
C 2509 3898 2394 3866 2195 3866 
C 1242 3866 678 3866 403 3911 
C 416 3815 435 3738 435 3642 
C 435 3547 416 3425 403 3328 
C 870 3392 1792 3392 2208 3392 
z
" transform="scale(0.015625)"/>
     </defs>
     <use xlink:href="#LinBiolinumT-31" transform="scale(0.996264)"/>
     <use xlink:href="#LinBiolinumT-2e" transform="translate(46.326292 0) scale(0.996264)"/>
     <use xlink:href="#LinBiolinumT-30" transform="translate(68.244115 0) scale(0.996264)"/>
     <use xlink:href="#LinBiolinumT-37" transform="translate(114.570407 0) scale(0.996264)"/>
    </g>
   </g>
   <g id="text_25">
    <!-- 0.80 -->
    <g style="fill: #d7191c" transform="translate(153.268776 167.579906) scale(0.26 -0.26)">
     <defs>
      <path id="LinBiolinumT-38" d="M 1504 3712 
C 1920 3712 2074 3430 2074 3131 
C 2074 2786 1734 2479 1555 2352 
L 1357 2466 
C 954 2728 909 2964 909 3162 
C 909 3463 1120 3712 1504 3712 
z
M 2547 3125 
C 2547 3584 2176 3923 1542 3923 
C 890 3923 429 3540 429 3048 
C 429 2690 627 2371 992 2160 
L 1120 2090 
C 960 1968 832 1866 672 1725 
C 410 1495 250 1208 250 958 
C 250 307 768 -32 1446 -32 
C 2285 -32 2739 576 2739 1061 
C 2739 1431 2534 1712 2182 1942 
L 1792 2198 
C 2080 2389 2547 2715 2547 3125 
z
M 1459 180 
C 1165 180 749 384 749 959 
C 749 1151 800 1579 1350 1943 
L 1645 1758 
C 2042 1509 2208 1228 2208 927 
C 2208 307 1754 180 1459 180 
z
" transform="scale(0.015625)"/>
     </defs>
     <use xlink:href="#LinBiolinumT-30" transform="scale(0.996264)"/>
     <use xlink:href="#LinBiolinumT-2e" transform="translate(46.326292 0) scale(0.996264)"/>
     <use xlink:href="#LinBiolinumT-38" transform="translate(68.244115 0) scale(0.996264)"/>
     <use xlink:href="#LinBiolinumT-30" transform="translate(114.570407 0) scale(0.996264)"/>
    </g>
   </g>
   <g id="text_26">
    <!-- 0.75 -->
    <g style="fill: #d7191c" transform="translate(215.852867 183.461419) scale(0.26 -0.26)">
     <defs>
      <path id="LinBiolinumT-35" d="M 1293 -32 
C 2054 -32 2598 538 2598 1303 
C 2598 1932 2182 2496 1466 2496 
C 1203 2496 909 2451 768 2400 
L 902 3514 
C 1139 3482 1414 3456 1715 3456 
C 1907 3456 2125 3456 2387 3488 
L 2490 3931 
L 2445 3950 
C 2080 3893 1734 3893 1395 3893 
C 1158 3893 883 3893 666 3925 
L 461 2057 
L 506 2038 
C 762 2142 998 2240 1299 2240 
C 1715 2240 2035 1901 2035 1193 
C 2035 595 1741 224 1306 224 
C 826 224 742 484 531 874 
L 442 867 
L 301 348 
L 326 329 
C 486 187 806 -32 1293 -32 
z
" transform="scale(0.015625)"/>
     </defs>
     <use xlink:href="#LinBiolinumT-30" transform="scale(0.996264)"/>
     <use xlink:href="#LinBiolinumT-2e" transform="translate(46.326292 0) scale(0.996264)"/>
     <use xlink:href="#LinBiolinumT-37" transform="translate(68.244115 0) scale(0.996264)"/>
     <use xlink:href="#LinBiolinumT-35" transform="translate(114.570407 0) scale(0.996264)"/>
    </g>
   </g>
   <g id="text_27">
    <!-- 0.72 -->
    <g style="fill: #d7191c" transform="translate(278.436957 190.267781) scale(0.26 -0.26)">
     <defs>
      <path id="LinBiolinumT-32" d="M 1421 3584 
C 1754 3584 2099 3276 2099 2826 
C 2099 2557 2022 2216 1856 1966 
C 1395 1278 666 636 346 333 
C 339 308 339 282 339 250 
C 339 154 371 58 403 0 
C 877 0 1146 0 1613 0 
C 2074 0 2266 0 2726 0 
C 2714 63 2707 139 2707 210 
C 2707 310 2714 412 2739 507 
C 2374 475 2182 456 1568 456 
C 1344 456 1216 456 1043 443 
C 1037 456 1037 462 1037 475 
C 1037 533 1101 604 1146 649 
C 1459 952 1760 1240 2182 1813 
C 2419 2135 2650 2547 2650 2914 
C 2650 3525 2240 3949 1523 3949 
C 941 3949 570 3622 422 3430 
L 563 2985 
L 646 2979 
C 736 3172 768 3307 928 3436 
C 1056 3539 1242 3584 1421 3584 
z
" transform="scale(0.015625)"/>
     </defs>
     <use xlink:href="#LinBiolinumT-30" transform="scale(0.996264)"/>
     <use xlink:href="#LinBiolinumT-2e" transform="translate(46.326292 0) scale(0.996264)"/>
     <use xlink:href="#LinBiolinumT-37" transform="translate(68.244115 0) scale(0.996264)"/>
     <use xlink:href="#LinBiolinumT-32" transform="translate(114.570407 0) scale(0.996264)"/>
    </g>
   </g>
   <g id="text_28">
    <!-- 0.71 -->
    <g style="fill: #d7191c" transform="translate(341.021047 194.049093) scale(0.26 -0.26)">
     <use xlink:href="#LinBiolinumT-30" transform="scale(0.996264)"/>
     <use xlink:href="#LinBiolinumT-2e" transform="translate(46.326292 0) scale(0.996264)"/>
     <use xlink:href="#LinBiolinumT-37" transform="translate(68.244115 0) scale(0.996264)"/>
     <use xlink:href="#LinBiolinumT-31" transform="translate(114.570407 0) scale(0.996264)"/>
    </g>
   </g>
   <g id="text_29">
    <!-- 0.70 -->
    <g style="fill: #d7191c" transform="translate(403.605137 196.455383) scale(0.26 -0.26)">
     <use xlink:href="#LinBiolinumT-30" transform="scale(0.996264)"/>
     <use xlink:href="#LinBiolinumT-2e" transform="translate(46.326292 0) scale(0.996264)"/>
     <use xlink:href="#LinBiolinumT-37" transform="translate(68.244115 0) scale(0.996264)"/>
     <use xlink:href="#LinBiolinumT-30" transform="translate(114.570407 0) scale(0.996264)"/>
    </g>
   </g>
   <g id="text_30">
    <!-- 0.70 -->
    <g style="fill: #d7191c" transform="translate(466.189227 198.121276) scale(0.26 -0.26)">
     <use xlink:href="#LinBiolinumT-30" transform="scale(0.996264)"/>
     <use xlink:href="#LinBiolinumT-2e" transform="translate(46.326292 0) scale(0.996264)"/>
     <use xlink:href="#LinBiolinumT-37" transform="translate(68.244115 0) scale(0.996264)"/>
     <use xlink:href="#LinBiolinumT-30" transform="translate(114.570407 0) scale(0.996264)"/>
    </g>
   </g>
   <g id="text_31">
    <!-- 0.69 -->
    <g style="fill: #d7191c" transform="translate(528.773317 199.342931) scale(0.26 -0.26)">
     <defs>
      <path id="LinBiolinumT-36" d="M 813 1794 
C 1062 2048 1318 2048 1459 2048 
C 2106 2048 2202 1438 2202 1127 
C 2202 428 1939 199 1632 199 
C 1293 199 806 423 806 1557 
C 806 1621 806 1729 813 1794 
z
M 2560 3756 
L 2541 3936 
C 1882 3936 1414 3756 979 3309 
C 512 2838 294 2224 294 1597 
C 294 240 1069 -32 1562 -32 
C 2496 -32 2765 715 2765 1174 
C 2765 1481 2592 2311 1594 2311 
C 1338 2311 979 2170 826 1978 
C 896 2524 1126 2979 1434 3281 
C 1760 3596 2118 3711 2560 3756 
z
" transform="scale(0.015625)"/>
      <path id="LinBiolinumT-39" d="M 2131 2112 
C 1882 1856 1626 1856 1485 1856 
C 838 1856 742 2468 742 2781 
C 742 3482 1005 3712 1312 3712 
C 1651 3712 2138 3488 2138 2349 
C 2138 2285 2138 2176 2131 2112 
z
M 384 149 
L 403 -32 
C 1062 -32 1530 150 1965 596 
C 2432 1068 2650 1684 2650 2312 
C 2650 3671 1875 3943 1382 3943 
C 448 3943 179 3196 179 2736 
C 179 2429 352 1599 1350 1599 
C 1606 1599 1965 1740 2118 1933 
C 2048 1385 1818 928 1510 626 
C 1184 309 826 194 384 149 
z
" transform="scale(0.015625)"/>
     </defs>
     <use xlink:href="#LinBiolinumT-30" transform="scale(0.996264)"/>
     <use xlink:href="#LinBiolinumT-2e" transform="translate(46.326292 0) scale(0.996264)"/>
     <use xlink:href="#LinBiolinumT-36" transform="translate(68.244115 0) scale(0.996264)"/>
     <use xlink:href="#LinBiolinumT-39" transform="translate(114.570407 0) scale(0.996264)"/>
    </g>
   </g>
   <g id="text_32">
    <!-- 0.69 -->
    <g style="fill: #d7191c" transform="translate(591.357408 200.277137) scale(0.26 -0.26)">
     <use xlink:href="#LinBiolinumT-30" transform="scale(0.996264)"/>
     <use xlink:href="#LinBiolinumT-2e" transform="translate(46.326292 0) scale(0.996264)"/>
     <use xlink:href="#LinBiolinumT-36" transform="translate(68.244115 0) scale(0.996264)"/>
     <use xlink:href="#LinBiolinumT-39" transform="translate(114.570407 0) scale(0.996264)"/>
    </g>
   </g>
  </g>
  <g id="legend_1">
   <g id="patch_29">
    <path d="M 13.070613 52.313078 
L 699.729387 52.313078 
Q 704.929387 52.313078 704.929387 47.113078 
L 704.929387 12.4 
Q 704.929387 7.2 699.729387 7.2 
L 13.070613 7.2 
Q 7.870613 7.2 7.870613 12.4 
L 7.870613 47.113078 
Q 7.870613 52.313078 13.070613 52.313078 
z
" style="fill: #ffffff; opacity: 0.8; stroke: #cccccc; stroke-linejoin: miter"/>
   </g>
   <g id="patch_30">
    <path d="M 18.270613 35.8 
L 70.270613 35.8 
L 70.270613 17.6 
L 18.270613 17.6 
z
" style="fill: #abd9e9"/>
   </g>
   <g id="text_33">
    <!-- Current HW -->
    <g transform="translate(91.070613 35.8) scale(0.26 -0.26)">
     <defs>
      <path id="LinBiolinumT-48" d="M 3430 2844 
L 3430 2330 
L 1216 2330 
L 1216 2844 
C 1216 3325 1229 3788 1280 4128 
L 1274 4141 
C 1197 4128 1018 4128 941 4128 
C 864 4128 691 4128 614 4147 
L 602 4128 
C 653 3763 666 3329 666 2850 
L 666 1284 
C 666 805 653 351 602 6 
L 608 -13 
C 685 0 864 0 941 0 
C 1018 0 1190 0 1267 -13 
L 1280 6 
C 1229 369 1216 801 1216 1278 
L 1216 2048 
L 3430 2048 
L 3430 1278 
C 3430 801 3418 349 3366 6 
L 3373 -13 
C 3450 0 3629 0 3706 0 
C 3782 0 3955 0 4032 -13 
L 4045 6 
C 3994 371 3981 805 3981 1284 
L 3981 2850 
C 3981 3329 3994 3789 4045 4128 
L 4038 4141 
C 3962 4128 3782 4128 3706 4128 
C 3629 4128 3456 4128 3379 4147 
L 3366 4128 
C 3418 3762 3430 3325 3430 2844 
z
" transform="scale(0.015625)"/>
      <path id="LinBiolinumT-57" d="M 4122 838 
L 4109 838 
C 3450 2781 3168 3743 3078 4147 
C 2970 4128 2835 4128 2726 4128 
C 2618 4128 2451 4128 2342 4147 
C 2458 3866 2656 3335 2893 2701 
C 2630 2054 2330 1363 2080 787 
L 2067 787 
C 1203 2778 870 3923 806 4147 
C 698 4128 595 4128 486 4128 
C 378 4128 211 4128 102 4147 
C 422 3500 1267 1337 1856 -64 
L 2035 -64 
L 3066 2253 
C 3347 1479 3654 633 3904 -64 
L 4083 -64 
C 4698 1357 5325 2733 5971 4147 
C 5894 4128 5818 4128 5747 4128 
C 5677 4128 5504 4128 5427 4147 
C 5210 3320 4582 1902 4122 838 
z
" transform="scale(0.015625)"/>
     </defs>
     <use xlink:href="#LinBiolinumT-43" transform="scale(0.996264)"/>
     <use xlink:href="#LinBiolinumT-75" transform="translate(67.44707 0) scale(0.996264)"/>
     <use xlink:href="#LinBiolinumT-72" transform="translate(120.946414 0) scale(0.996264)"/>
     <use xlink:href="#LinBiolinumT-72" transform="translate(156.313741 0) scale(0.996264)"/>
     <use xlink:href="#LinBiolinumT-65" transform="translate(190.884008 0) scale(0.996264)"/>
     <use xlink:href="#LinBiolinumT-6e" transform="translate(236.014771 0) scale(0.996264)"/>
     <use xlink:href="#LinBiolinumT-74" transform="translate(289.713349 0) scale(0.996264)"/>
     <use xlink:href="#LinBiolinumT-48" transform="translate(348.492941 0) scale(0.996264)"/>
     <use xlink:href="#LinBiolinumT-57" transform="translate(423.212726 0) scale(0.996264)"/>
    </g>
   </g>
   <g id="patch_31">
    <path d="M 277.739478 35.8 
L 329.739478 35.8 
L 329.739478 17.6 
L 277.739478 17.6 
z
" style="fill: #fdae61"/>
   </g>
   <g id="text_34">
    <!-- New HW -->
    <g transform="translate(350.539478 35.8) scale(0.26 -0.26)">
     <defs>
      <path id="LinBiolinumT-4e" d="M 691 4160 
C 749 2934 730 1026 627 0 
L 640 -19 
C 717 -6 787 0 864 0 
C 941 0 1011 -3 1088 -10 
L 1101 9 
C 1050 375 1037 811 1037 1292 
L 1037 2825 
C 1037 3216 1050 3235 1286 2927 
L 3520 99 
C 3590 3 3693 -32 3795 -32 
C 3885 -32 3910 45 3917 167 
C 3949 1625 3942 2739 4045 4160 
L 4032 4179 
C 3955 4166 3885 4160 3808 4160 
C 3731 4160 3661 4166 3584 4179 
L 3571 4160 
C 3622 3794 3635 3358 3635 2877 
L 3635 1165 
C 3629 818 3533 966 3258 1325 
L 1062 4173 
C 1062 4173 1005 4160 973 4160 
C 755 4160 704 4179 704 4179 
L 691 4160 
z
" transform="scale(0.015625)"/>
      <path id="LinBiolinumT-77" d="M 1312 -20 
C 1376 0 1459 0 1523 0 
C 1587 0 1696 0 1754 -20 
C 1926 473 2112 998 2323 1504 
C 2515 1003 2720 482 2899 -19 
C 2963 0 3002 0 3066 0 
C 3130 0 3245 0 3302 -19 
C 3616 738 4128 1970 4493 2772 
C 4435 2752 4282 2752 4218 2752 
C 4154 2752 4058 2752 4000 2772 
C 3763 2016 3475 1197 3213 582 
L 3162 582 
C 2893 1287 2694 2093 2547 2772 
C 2464 2752 2317 2752 2227 2752 
C 2125 2752 1958 2752 1856 2772 
C 1946 2509 2048 2228 2157 1933 
C 1984 1452 1811 972 1626 576 
L 1587 576 
C 1267 1314 1050 2033 819 2771 
C 736 2752 589 2752 499 2752 
C 397 2752 230 2752 128 2771 
C 557 1828 954 917 1312 -20 
z
" transform="scale(0.015625)"/>
     </defs>
     <use xlink:href="#LinBiolinumT-4e" transform="scale(0.996264)"/>
     <use xlink:href="#LinBiolinumT-65" transform="translate(71.531789 0) scale(0.996264)"/>
     <use xlink:href="#LinBiolinumT-77" transform="translate(115.96517 0) scale(0.996264)"/>
     <use xlink:href="#LinBiolinumT-48" transform="translate(212.802044 0) scale(0.996264)"/>
     <use xlink:href="#LinBiolinumT-57" transform="translate(287.52183 0) scale(0.996264)"/>
    </g>
   </g>
   <g id="line2d_23">
    <path d="M 501.928747 26.7 
L 527.928747 26.7 
L 553.928747 26.7 
" style="fill: none; stroke-dasharray: 7.4,3.2; stroke-dashoffset: 0; stroke: #d7191c; stroke-width: 2"/>
   </g>
   <g id="text_35">
    <!-- Break-even -->
    <g transform="translate(574.728747 35.8) scale(0.26 -0.26)">
     <defs>
      <path id="LinBiolinumT-42" d="M 1216 3590 
C 1216 3801 1280 3884 1798 3884 
C 2157 3884 2611 3743 2611 3091 
C 2611 2548 2246 2387 1715 2387 
L 1216 2387 
L 1216 3590 
z
M 1216 2112 
L 1811 2112 
C 2560 2112 2912 1644 2912 1069 
C 2912 628 2758 270 1837 270 
C 1389 270 1216 366 1216 576 
L 1216 2112 
z
M 941 4141 
C 723 4141 614 4160 614 4160 
L 602 4141 
C 653 3775 666 3338 666 2857 
L 666 1284 
C 666 803 653 346 602 0 
L 608 0 
C 608 0 717 0 941 0 
C 1338 0 1389 0 1958 0 
C 3232 0 3546 645 3546 1193 
C 3546 1806 3130 2158 2573 2317 
C 2899 2477 3168 2816 3168 3168 
C 3168 3597 2944 4160 1754 4160 
C 1530 4160 1261 4141 941 4141 
z
" transform="scale(0.015625)"/>
      <path id="LinBiolinumT-6b" d="M 576 1285 
C 576 812 570 351 518 6 
L 531 -13 
C 608 0 755 0 832 0 
C 909 0 1056 0 1133 -13 
L 1146 6 
C 1094 370 1088 804 1088 1283 
L 1088 1347 
C 1139 1347 1293 1328 1350 1276 
C 1766 842 1920 612 2355 -13 
C 2451 0 2669 0 2778 0 
C 2886 0 3104 0 3162 -13 
L 3174 6 
C 2701 511 2355 792 1747 1526 
C 1997 1789 2624 2400 3040 2752 
L 3027 2752 
C 2906 2752 2554 2752 2381 2752 
C 2106 2355 1626 1834 1370 1635 
C 1286 1571 1171 1546 1088 1539 
L 1088 3203 
C 1088 3683 1114 4004 1146 4407 
C 1146 4451 1126 4471 1088 4471 
C 928 4407 794 4362 531 4342 
L 518 4323 
C 570 4048 576 3575 576 3088 
L 576 1285 
z
" transform="scale(0.015625)"/>
      <path id="LinBiolinumT-2d" d="M 1754 1536 
C 1837 1536 1926 1696 1926 1767 
C 1926 1824 1901 1882 1837 1882 
L 371 1882 
C 294 1882 211 1747 211 1645 
C 211 1587 250 1536 307 1536 
L 1754 1536 
z
" transform="scale(0.015625)"/>
      <path id="LinBiolinumT-76" d="M 1293 -19 
C 1357 0 1427 0 1491 0 
C 1555 0 1626 0 1683 -19 
C 2016 917 2413 1829 2829 2772 
C 2771 2752 2650 2752 2586 2752 
C 2522 2752 2426 2752 2368 2772 
C 2112 2047 1888 1206 1594 577 
L 1581 577 
C 1261 1315 1050 2034 819 2772 
C 736 2752 589 2752 499 2752 
C 397 2752 230 2752 128 2772 
C 557 1829 934 917 1293 -19 
z
" transform="scale(0.015625)"/>
     </defs>
     <use xlink:href="#LinBiolinumT-42" transform="scale(0.996264)"/>
     <use xlink:href="#LinBiolinumT-72" transform="translate(61.369869 0) scale(0.996264)"/>
     <use xlink:href="#LinBiolinumT-65" transform="translate(95.940136 0) scale(0.996264)"/>
     <use xlink:href="#LinBiolinumT-61" transform="translate(141.070899 0) scale(0.996264)"/>
     <use xlink:href="#LinBiolinumT-6b" transform="translate(188.991188 0) scale(0.996264)"/>
     <use xlink:href="#LinBiolinumT-2d" transform="translate(239.103286 0) scale(0.996264)"/>
     <use xlink:href="#LinBiolinumT-65" transform="translate(272.278896 0) scale(0.996264)"/>
     <use xlink:href="#LinBiolinumT-76" transform="translate(316.712277 0) scale(0.996264)"/>
     <use xlink:href="#LinBiolinumT-65" transform="translate(361.942596 0) scale(0.996264)"/>
     <use xlink:href="#LinBiolinumT-6e" transform="translate(407.073359 0) scale(0.996264)"/>
    </g>
   </g>
  </g>
 </g>
 <defs>
  <clipPath id="p32b5e868ff">
   <rect x="54.356983" y="65.48" width="585.161243" height="350.845081"/>
  </clipPath>
 </defs>
</svg>
