<?xml version="1.0" encoding="utf-8" standalone="no"?>
<!DOCTYPE svg PUBLIC "-//W3C//DTD SVG 1.1//EN"
  "http://www.w3.org/Graphics/SVG/1.1/DTD/svg11.dtd">
<svg xmlns:xlink="http://www.w3.org/1999/xlink" width="711.458775pt" height="69.84pt" viewBox="0 0 711.458775 69.84" xmlns="http://www.w3.org/2000/svg" version="1.1">
 <metadata>
  <rdf:RDF xmlns:dc="http://purl.org/dc/elements/1.1/" xmlns:cc="http://creativecommons.org/ns#" xmlns:rdf="http://www.w3.org/1999/02/22-rdf-syntax-ns#">
   <cc:Work>
    <dc:type rdf:resource="http://purl.org/dc/dcmitype/StillImage"/>
    <dc:date>2024-11-15T11:45:27.112355</dc:date>
    <dc:format>image/svg+xml</dc:format>
    <dc:creator>
     <cc:Agent>
      <dc:title>Matplotlib v3.9.1, https://matplotlib.org/</dc:title>
     </cc:Agent>
    </dc:creator>
   </cc:Work>
  </rdf:RDF>
 </metadata>
 <defs>
  <style type="text/css">*{stroke-linejoin: round; stroke-linecap: butt}</style>
 </defs>
 <g id="figure_1">
  <g id="patch_1">
   <path d="M 0 69.84 
L 711.458775 69.84 
L 711.458775 0 
L 0 0 
z
" style="fill: #ffffff"/>
  </g>
  <g id="axes_1">
   <g id="legend_1">
    <g id="patch_2">
     <path d="M 12.4 57.476539 
L 699.058775 57.476539 
Q 704.258775 57.476539 704.258775 52.276539 
L 704.258775 17.563461 
Q 704.258775 12.363461 699.058775 12.363461 
L 12.4 12.363461 
Q 7.2 12.363461 7.2 17.563461 
L 7.2 52.276539 
Q 7.2 57.476539 12.4 57.476539 
z
" style="fill: #ffffff; opacity: 0.8; stroke: #cccccc; stroke-linejoin: miter"/>
    </g>
    <g id="patch_3">
     <path d="M 17.6 40.963461 
L 69.6 40.963461 
L 69.6 22.763461 
L 17.6 22.763461 
z
" style="fill: #abd9e9"/>
    </g>
    <g id="text_1">
     <!-- Current HW -->
     <g transform="translate(90.4 40.963461) scale(0.26 -0.26)">
      <defs>
       <path id="LinBiolinumT-43" d="M 2432 4269 
C 1350 4269 333 3329 333 2060 
C 333 947 966 -32 2342 -32 
C 2931 -32 3488 155 3917 675 
C 3917 746 3904 888 3878 946 
L 3834 965 
C 3379 463 2995 295 2400 295 
C 1587 295 992 1178 992 2183 
C 992 3491 1818 3968 2342 3968 
C 2918 3968 3386 3736 3648 3208 
L 3725 3214 
C 3750 3542 3770 3659 3840 3929 
L 3827 3949 
C 3827 3949 3213 4269 2432 4269 
z
" transform="scale(0.015625)"/>
       <path id="LinBiolinumT-75" d="M 2336 590 
L 2362 571 
L 2394 0 
C 2394 0 2400 0 2419 0 
C 2502 0 2579 0 2675 0 
C 2752 0 2874 0 2957 -4 
L 2970 15 
C 2918 290 2861 761 2861 1240 
L 2861 1604 
C 2861 2082 2867 2415 2918 2752 
L 2906 2765 
C 2829 2752 2682 2752 2605 2752 
C 2528 2752 2381 2752 2304 2772 
L 2291 2752 
C 2342 2392 2349 2094 2349 1613 
L 2349 992 
C 2157 669 1786 327 1472 327 
C 1254 327 1043 397 1043 986 
L 1043 1613 
C 1043 2088 1050 2417 1101 2752 
L 1088 2765 
C 1011 2752 864 2752 787 2752 
C 710 2752 563 2752 486 2772 
L 474 2752 
C 525 2391 531 2092 531 1611 
L 531 849 
C 531 412 736 -32 1370 -32 
C 1766 -32 2125 263 2336 590 
z
" transform="scale(0.015625)"/>
       <path id="LinBiolinumT-72" d="M 1069 2114 
L 1069 2718 
C 1069 2765 1062 2778 1030 2778 
C 890 2752 659 2752 512 2759 
L 499 2739 
C 544 2466 557 1981 557 1503 
L 557 1152 
C 557 675 550 350 499 6 
L 512 -13 
C 589 0 736 0 813 0 
C 890 0 1037 0 1114 -13 
L 1126 6 
C 1082 366 1069 662 1069 1141 
L 1069 1470 
C 1069 1734 1152 1886 1286 2095 
C 1382 2233 1523 2315 1645 2315 
C 1773 2315 1894 2303 1978 2227 
L 2029 2240 
L 2157 2738 
L 2131 2755 
C 2022 2776 2016 2784 1901 2784 
C 1555 2784 1370 2586 1088 2101 
L 1069 2114 
z
" transform="scale(0.015625)"/>
       <path id="LinBiolinumT-65" d="M 800 1792 
C 909 2399 1331 2527 1530 2527 
C 1786 2527 2067 2311 2067 1874 
C 2067 1821 2042 1792 1978 1792 
L 800 1792 
z
M 2509 700 
C 2285 456 1984 346 1632 346 
C 1414 346 1114 431 934 715 
C 819 895 781 1160 781 1535 
L 2522 1535 
C 2592 1535 2637 1572 2637 1638 
C 2637 2147 2374 2784 1530 2784 
C 870 2784 218 2263 218 1341 
C 218 984 294 633 506 382 
C 723 124 1094 -32 1523 -32 
C 1984 -32 2394 205 2637 540 
L 2509 700 
z
" transform="scale(0.015625)"/>
       <path id="LinBiolinumT-6e" d="M 2944 1144 
C 2944 1348 2957 1581 2957 1784 
C 2957 2442 2739 2784 2163 2784 
C 1920 2784 1466 2688 1056 2210 
L 1043 2231 
L 1043 2717 
C 1043 2765 1037 2778 1005 2778 
C 864 2752 634 2752 486 2759 
L 474 2739 
C 518 2466 531 1981 531 1503 
L 531 1152 
C 531 675 525 350 474 6 
L 486 -13 
C 563 0 710 0 787 0 
C 864 0 1011 0 1088 -13 
L 1101 6 
C 1050 366 1043 662 1043 1142 
L 1043 1881 
C 1370 2260 1741 2399 1971 2399 
C 2298 2399 2432 2273 2432 1761 
L 2432 1142 
C 2432 668 2419 347 2374 6 
L 2387 -13 
C 2464 0 2611 0 2688 0 
C 2765 0 2912 0 2989 -13 
L 3002 6 
C 2950 367 2944 664 2944 1144 
z
" transform="scale(0.015625)"/>
       <path id="LinBiolinumT-74" d="M 608 2752 
C 480 2752 339 2752 262 2765 
C 218 2663 186 2599 122 2502 
L 154 2464 
C 262 2464 461 2464 608 2464 
L 608 1599 
C 608 1219 589 764 589 575 
C 589 164 858 -32 1152 -32 
C 1421 -32 1626 31 1894 203 
L 1818 361 
C 1619 285 1472 285 1312 310 
C 1158 335 1101 487 1101 828 
C 1101 1018 1120 1289 1120 1668 
L 1120 2464 
L 1363 2464 
C 1517 2464 1741 2464 1824 2458 
C 1843 2561 1862 2624 1901 2720 
L 1869 2752 
C 1754 2752 1568 2752 1421 2752 
L 1120 2752 
C 1120 3233 1126 3317 1152 3689 
C 1152 3734 1133 3753 1094 3753 
C 934 3689 858 3618 646 3593 
L 634 3573 
C 621 3349 608 3124 608 2752 
z
" transform="scale(0.015625)"/>
       <path id="LinBiolinumT-48" d="M 3430 2844 
L 3430 2330 
L 1216 2330 
L 1216 2844 
C 1216 3325 1229 3788 1280 4128 
L 1274 4141 
C 1197 4128 1018 4128 941 4128 
C 864 4128 691 4128 614 4147 
L 602 4128 
C 653 3763 666 3329 666 2850 
L 666 1284 
C 666 805 653 351 602 6 
L 608 -13 
C 685 0 864 0 941 0 
C 1018 0 1190 0 1267 -13 
L 1280 6 
C 1229 369 1216 801 1216 1278 
L 1216 2048 
L 3430 2048 
L 3430 1278 
C 3430 801 3418 349 3366 6 
L 3373 -13 
C 3450 0 3629 0 3706 0 
C 3782 0 3955 0 4032 -13 
L 4045 6 
C 3994 371 3981 805 3981 1284 
L 3981 2850 
C 3981 3329 3994 3789 4045 4128 
L 4038 4141 
C 3962 4128 3782 4128 3706 4128 
C 3629 4128 3456 4128 3379 4147 
L 3366 4128 
C 3418 3762 3430 3325 3430 2844 
z
" transform="scale(0.015625)"/>
       <path id="LinBiolinumT-57" d="M 4122 838 
L 4109 838 
C 3450 2781 3168 3743 3078 4147 
C 2970 4128 2835 4128 2726 4128 
C 2618 4128 2451 4128 2342 4147 
C 2458 3866 2656 3335 2893 2701 
C 2630 2054 2330 1363 2080 787 
L 2067 787 
C 1203 2778 870 3923 806 4147 
C 698 4128 595 4128 486 4128 
C 378 4128 211 4128 102 4147 
C 422 3500 1267 1337 1856 -64 
L 2035 -64 
L 3066 2253 
C 3347 1479 3654 633 3904 -64 
L 4083 -64 
C 4698 1357 5325 2733 5971 4147 
C 5894 4128 5818 4128 5747 4128 
C 5677 4128 5504 4128 5427 4147 
C 5210 3320 4582 1902 4122 838 
z
" transform="scale(0.015625)"/>
      </defs>
      <use xlink:href="#LinBiolinumT-43" transform="scale(0.996264)"/>
      <use xlink:href="#LinBiolinumT-75" transform="translate(67.44707 0) scale(0.996264)"/>
      <use xlink:href="#LinBiolinumT-72" transform="translate(120.946414 0) scale(0.996264)"/>
      <use xlink:href="#LinBiolinumT-72" transform="translate(156.313741 0) scale(0.996264)"/>
      <use xlink:href="#LinBiolinumT-65" transform="translate(190.884008 0) scale(0.996264)"/>
      <use xlink:href="#LinBiolinumT-6e" transform="translate(236.014771 0) scale(0.996264)"/>
      <use xlink:href="#LinBiolinumT-74" transform="translate(289.713349 0) scale(0.996264)"/>
      <use xlink:href="#LinBiolinumT-48" transform="translate(348.492941 0) scale(0.996264)"/>
      <use xlink:href="#LinBiolinumT-57" transform="translate(423.212726 0) scale(0.996264)"/>
     </g>
    </g>
    <g id="patch_4">
     <path d="M 277.068866 40.963461 
L 329.068866 40.963461 
L 329.068866 22.763461 
L 277.068866 22.763461 
z
" style="fill: #fdae61"/>
    </g>
    <g id="text_2">
     <!-- New HW -->
     <g transform="translate(349.868866 40.963461) scale(0.26 -0.26)">
      <defs>
       <path id="LinBiolinumT-4e" d="M 691 4160 
C 749 2934 730 1026 627 0 
L 640 -19 
C 717 -6 787 0 864 0 
C 941 0 1011 -3 1088 -10 
L 1101 9 
C 1050 375 1037 811 1037 1292 
L 1037 2825 
C 1037 3216 1050 3235 1286 2927 
L 3520 99 
C 3590 3 3693 -32 3795 -32 
C 3885 -32 3910 45 3917 167 
C 3949 1625 3942 2739 4045 4160 
L 4032 4179 
C 3955 4166 3885 4160 3808 4160 
C 3731 4160 3661 4166 3584 4179 
L 3571 4160 
C 3622 3794 3635 3358 3635 2877 
L 3635 1165 
C 3629 818 3533 966 3258 1325 
L 1062 4173 
C 1062 4173 1005 4160 973 4160 
C 755 4160 704 4179 704 4179 
L 691 4160 
z
" transform="scale(0.015625)"/>
       <path id="LinBiolinumT-77" d="M 1312 -20 
C 1376 0 1459 0 1523 0 
C 1587 0 1696 0 1754 -20 
C 1926 473 2112 998 2323 1504 
C 2515 1003 2720 482 2899 -19 
C 2963 0 3002 0 3066 0 
C 3130 0 3245 0 3302 -19 
C 3616 738 4128 1970 4493 2772 
C 4435 2752 4282 2752 4218 2752 
C 4154 2752 4058 2752 4000 2772 
C 3763 2016 3475 1197 3213 582 
L 3162 582 
C 2893 1287 2694 2093 2547 2772 
C 2464 2752 2317 2752 2227 2752 
C 2125 2752 1958 2752 1856 2772 
C 1946 2509 2048 2228 2157 1933 
C 1984 1452 1811 972 1626 576 
L 1587 576 
C 1267 1314 1050 2033 819 2771 
C 736 2752 589 2752 499 2752 
C 397 2752 230 2752 128 2771 
C 557 1828 954 917 1312 -20 
z
" transform="scale(0.015625)"/>
      </defs>
      <use xlink:href="#LinBiolinumT-4e" transform="scale(0.996264)"/>
      <use xlink:href="#LinBiolinumT-65" transform="translate(71.531789 0) scale(0.996264)"/>
      <use xlink:href="#LinBiolinumT-77" transform="translate(115.96517 0) scale(0.996264)"/>
      <use xlink:href="#LinBiolinumT-48" transform="translate(212.802044 0) scale(0.996264)"/>
      <use xlink:href="#LinBiolinumT-57" transform="translate(287.52183 0) scale(0.996264)"/>
     </g>
    </g>
    <g id="line2d_1">
     <path d="M 501.258134 31.863461 
L 527.258134 31.863461 
L 553.258134 31.863461 
" style="fill: none; stroke-dasharray: 7.4,3.2; stroke-dashoffset: 0; stroke: #d7191c; stroke-width: 2"/>
    </g>
    <g id="text_3">
     <!-- Break-even -->
     <g transform="translate(574.058134 40.963461) scale(0.26 -0.26)">
      <defs>
       <path id="LinBiolinumT-42" d="M 1216 3590 
C 1216 3801 1280 3884 1798 3884 
C 2157 3884 2611 3743 2611 3091 
C 2611 2548 2246 2387 1715 2387 
L 1216 2387 
L 1216 3590 
z
M 1216 2112 
L 1811 2112 
C 2560 2112 2912 1644 2912 1069 
C 2912 628 2758 270 1837 270 
C 1389 270 1216 366 1216 576 
L 1216 2112 
z
M 941 4141 
C 723 4141 614 4160 614 4160 
L 602 4141 
C 653 3775 666 3338 666 2857 
L 666 1284 
C 666 803 653 346 602 0 
L 608 0 
C 608 0 717 0 941 0 
C 1338 0 1389 0 1958 0 
C 3232 0 3546 645 3546 1193 
C 3546 1806 3130 2158 2573 2317 
C 2899 2477 3168 2816 3168 3168 
C 3168 3597 2944 4160 1754 4160 
C 1530 4160 1261 4141 941 4141 
z
" transform="scale(0.015625)"/>
       <path id="LinBiolinumT-61" d="M 1984 1442 
L 1958 700 
C 1958 619 1920 576 1869 538 
C 1690 407 1472 295 1280 295 
C 992 295 806 482 806 675 
C 806 956 941 1168 1440 1299 
L 1984 1442 
z
M 1984 339 
C 2061 90 2246 -32 2483 -32 
C 2643 -32 2842 6 2995 167 
L 2944 326 
C 2874 301 2822 295 2771 295 
C 2707 295 2624 301 2586 339 
C 2522 395 2477 551 2477 826 
C 2477 1008 2496 1702 2496 1771 
C 2496 2614 1926 2784 1440 2784 
C 954 2784 659 2547 499 2414 
L 480 2389 
L 589 1971 
L 672 1965 
C 851 2245 1069 2495 1376 2495 
C 1606 2495 1990 2464 1990 1760 
C 1990 1716 1965 1692 1946 1685 
L 1350 1554 
C 698 1409 288 1071 288 645 
C 288 181 614 -32 1088 -32 
C 1440 -32 1619 51 1958 339 
L 1984 339 
z
" transform="scale(0.015625)"/>
       <path id="LinBiolinumT-6b" d="M 576 1285 
C 576 812 570 351 518 6 
L 531 -13 
C 608 0 755 0 832 0 
C 909 0 1056 0 1133 -13 
L 1146 6 
C 1094 370 1088 804 1088 1283 
L 1088 1347 
C 1139 1347 1293 1328 1350 1276 
C 1766 842 1920 612 2355 -13 
C 2451 0 2669 0 2778 0 
C 2886 0 3104 0 3162 -13 
L 3174 6 
C 2701 511 2355 792 1747 1526 
C 1997 1789 2624 2400 3040 2752 
L 3027 2752 
C 2906 2752 2554 2752 2381 2752 
C 2106 2355 1626 1834 1370 1635 
C 1286 1571 1171 1546 1088 1539 
L 1088 3203 
C 1088 3683 1114 4004 1146 4407 
C 1146 4451 1126 4471 1088 4471 
C 928 4407 794 4362 531 4342 
L 518 4323 
C 570 4048 576 3575 576 3088 
L 576 1285 
z
" transform="scale(0.015625)"/>
       <path id="LinBiolinumT-2d" d="M 1754 1536 
C 1837 1536 1926 1696 1926 1767 
C 1926 1824 1901 1882 1837 1882 
L 371 1882 
C 294 1882 211 1747 211 1645 
C 211 1587 250 1536 307 1536 
L 1754 1536 
z
" transform="scale(0.015625)"/>
       <path id="LinBiolinumT-76" d="M 1293 -19 
C 1357 0 1427 0 1491 0 
C 1555 0 1626 0 1683 -19 
C 2016 917 2413 1829 2829 2772 
C 2771 2752 2650 2752 2586 2752 
C 2522 2752 2426 2752 2368 2772 
C 2112 2047 1888 1206 1594 577 
L 1581 577 
C 1261 1315 1050 2034 819 2772 
C 736 2752 589 2752 499 2752 
C 397 2752 230 2752 128 2772 
C 557 1829 934 917 1293 -19 
z
" transform="scale(0.015625)"/>
      </defs>
      <use xlink:href="#LinBiolinumT-42" transform="scale(0.996264)"/>
      <use xlink:href="#LinBiolinumT-72" transform="translate(61.369869 0) scale(0.996264)"/>
      <use xlink:href="#LinBiolinumT-65" transform="translate(95.940136 0) scale(0.996264)"/>
      <use xlink:href="#LinBiolinumT-61" transform="translate(141.070899 0) scale(0.996264)"/>
      <use xlink:href="#LinBiolinumT-6b" transform="translate(188.991188 0) scale(0.996264)"/>
      <use xlink:href="#LinBiolinumT-2d" transform="translate(239.103286 0) scale(0.996264)"/>
      <use xlink:href="#LinBiolinumT-65" transform="translate(272.278896 0) scale(0.996264)"/>
      <use xlink:href="#LinBiolinumT-76" transform="translate(316.712277 0) scale(0.996264)"/>
      <use xlink:href="#LinBiolinumT-65" transform="translate(361.942596 0) scale(0.996264)"/>
      <use xlink:href="#LinBiolinumT-6e" transform="translate(407.073359 0) scale(0.996264)"/>
     </g>
    </g>
   </g>
  </g>
 </g>
</svg>
