<svg xmlns="http://www.w3.org/2000/svg" height="800" width="1200" viewBox="-5.19477 -4.193125 45.02134 25.15875" style="background-color: #333333"><path d="M2.2767.4365L.0002 6.082v.0007h1.4901l.4223-1.118h2.5248l.4636 1.118h1.515L3.9071.4365zm.8364 1.349l.9105 2.194H2.2848zM11.9197.4363h1.2252v5.6463h-1.4076V2.5558L10.214 4.3271h-.215L8.4758 2.5558v3.5268H7.0683V.4363h1.2252l1.8129 2.0945zm3.7071 4.6116h.919c1.4154 0 1.838-.9606 1.838-1.7886 0-.9687-.5218-1.7879-1.8546-1.7879h-.9024zM16.7113.4364c2.0616 0 3.121 1.283 3.121 2.8314 0 1.6224-1.0262 2.8148-3.2784 2.8148h-2.3347V.4364zm8.8328 1.3388h-2.9115L20.8578 0h6.4608v6.4615L25.544 4.6863zm-2.9136 2.9134V2.131l-1.8274 1.827v2.558h2.5573l1.827-1.8274zM0 10.8962h7.3417V9.427H0zm0 1.4689v4.4073h7.3417v-1.469H1.4693v-1.469h5.8724v-1.4693zm22.0163-.0247l-2.1026-2.9136h-1.815l3.176 4.407v2.9386h1.468v-2.9387l3.1919-4.4069h-1.8154zm5.2654 2.962c0 .8121.658 1.47 1.47 1.47h5.8801v-1.47h-5.776a.1041.1041 0 01-.104-.1044v-4.197a.104.104 0 01.104-.104h5.776v-1.47h-5.88c-.8122 0-1.47.6582-1.47 1.47zM15.5285 9.4269H9.6519v1.4693h5.7725a.104.104 0 01.104.104v1.2609a.104.104 0 01-.104.104H9.6519v4.4073h1.469v-2.9383h4.4076c.8114 0 1.4693-.6576 1.4693-1.469v-1.469c0-.8117-.658-1.4692-1.4693-1.4692" fill="#fff"/></svg>